<svg xmlns="http://www.w3.org/2000/svg" viewBox="0 0 311 285" preserveAspectRatio="xMidYMid meet" id="hfaahgcb"><defs id="SvgjsDefs1001"/><g id="SvgjsG1007" featurekey="root" fill="#000000"/><g id="SvgjsG1008" featurekey="container1" fill="#7a7a7a" transform="matrix(1,0,0,1,20,20)"><path xmlns="http://www.w3.org/2000/svg" fill-rule="nonzero" d="M0,0 H271 V245 H0,0zM6,6 V239 H265 V6,6z"/></g><g id="SvgjsG1009" featurekey="symbol1" fill="#00ae00" transform="matrix(0.7757577069395473,0,0,0.7757577069395473,117.24533258004136,46.09793857133363)"><g xmlns="http://www.w3.org/2000/svg" display="none"><g display="inline"><path d="M84.217,20.603l-4.485,4.485c5.575,6.724,8.937,15.345,8.937,24.742c0,3.441-0.561,6.881-1.299,10.086    c-1.697,7.366-7.36,15.284-11.661,19.121c-6.544,5.838-15.948,9.563-25.883,9.563c-9.3,0-17.837-3.055-24.531-9.075l-4.696,4.696    C28.484,90.933,38.685,95,49.826,95c24.907,0,45.171-20.263,45.171-45.171C94.997,38.688,90.929,28.487,84.217,20.603z"/></g></g><g xmlns="http://www.w3.org/2000/svg"><g><path d="M72.299,22.368"/><path d="M74.341,20.326"/><path d="M69.194,22.368c0.008-0.076,0.023-0.149,0.023-0.227c0-1.185-0.969-2.154-2.154-2.154h-1.814    c-1.185,0-2.154,0.969-2.154,2.154c0,0.078,0.015,0.151,0.023,0.227l-4.498,0.253c-2.254,0-2.214,0.762-2.214,2.015    s4.258,6.589,6.512,6.589c0.709,0,0.038-2.323,0.583-2.558c0.083,0.014,2.215-0.109,2.3-0.095l6.499-6.203H69.194z"/><path d="M28.173,46.579h-2.161c-1.202,0-2.206,0.798-2.544,1.889c-0.686-0.551-4.245-3.465-4.732-4.975    c-0.038-0.119,0.845-2.545,1.868-3.452c0,0,2.185,0.184,2.977,0c0.546-0.127,4.593-2.367,6.369-5.24    c0.54-0.874,3.062-6.473,3.477-7.413c0.302-0.685-0.587-2.663-1.518-2.225c-0.666,0.314-1.73,2.178-2.403,2.476    c-0.842,0.372-2.686,0.558-3.458,0.057c-3.275-2.127,0.823-3.486,2.844-2.419c0.896,0.474,3.01-4.284,1.811-4.284    c-1.644,0-6.575,0-6.575,0c6.877-5.442,15.948-9.563,25.883-9.563c9.207,0,17.666,2.994,24.33,8.895l4.692-4.692    C71.177,9.026,61.056,5.03,50.011,5.03c-24.907,0-45.171,20.263-45.171,45.171c0,11.044,3.996,21.166,10.604,29.021l4.485-4.485    c-5.472-6.694-8.761-15.237-8.761-24.536c0-3.441,0.455-6.907,1.299-10.086c0.178,0.034,0.359-0.073,0.546-0.073h0.535v3.078    c0.746,1.293,1.058,1.282,2.506,2.38c0.177,0.134,5.705,4.875,5.705,4.875c0.069,0.069,0.17,0.122,0.288,0.166    c-0.577,0.8-1.13,1.986-1.13,3.611c0,4.762,3.75,11.567,5.405,11.567l0.368,2.256l12.326-12.326l-7.135-7.521    C30.903,47.137,29.567,46.579,28.173,46.579z"/></g><g><path fill="none" d="M23.461,77.662c0.77,0.83,1.287,1.374,1.287,1.374c0.179,0.168,0.365,0.325,0.547,0.488l1.862-1.862H23.461z"/></g></g><g xmlns="http://www.w3.org/2000/svg" display="none"><g display="inline" opacity="0.25"><path d="M84.191,20.629L20.649,84.171c17.711,15.178,44.398,14.395,61.168-2.374C98.586,65.027,99.369,38.34,84.191,20.629z"/></g></g><g xmlns="http://www.w3.org/2000/svg"><g><path d="M35.115,88.67c-0.643-0.604-1.122-1.857-2.073-1.857c-1.099,0-1.429,1.016-2.089,1.793    c-0.531,0.626-1.505,0.915-1.505,1.8c0,1.034,1.238,1.178,1.937,1.833c0.643,0.603,0.706,1.76,1.656,1.76    c1.146,0,1.639-1.325,2.297-2.16c0.482-0.611,1.296-0.594,1.296-1.433C36.635,89.374,35.813,89.326,35.115,88.67z"/><path d="M83.989,20.629L20.447,84.171c5.62,4.817,12.155-0.318,18.979,1.284c4.321,1.014,6.52,9.822,10.928,9.546    c5.001-0.313,10.897-7.298,15.59-9.271c5.224-2.197,10.23,1.31,14.485-2.946C83.325,79.887,85.058,73.39,87,70    c3.236-5.648,7.422-5.265,8.013-11.564c0.529-5.634-2.423-8.217-6.513-14.686C85.158,38.465,88.274,25.629,83.989,20.629z     M49.003,81.389c0.503-1.021,0.685-2.21,0.432-3.412c-0.598-2.848-3.386-4.673-6.227-4.077c-0.771,0.162-1.462,0.489-2.054,0.932    c0.689-1.399,1.986-2.481,3.628-2.826c2.841-0.597,5.629,1.228,6.227,4.077C51.445,78.159,50.595,80.201,49.003,81.389z     M61.067,60.262c-2.29,0.159-4.274-1.574-4.433-3.869c-0.116-1.673,0.772-3.179,2.148-3.937c-0.505,0.745-0.776,1.657-0.709,2.625    c0.159,2.295,2.144,4.028,4.433,3.869c0.621-0.043,1.198-0.224,1.71-0.506C63.524,59.465,62.391,60.171,61.067,60.262z     M74.911,68.456c-3.542-0.543-6.852,1.881-7.393,5.414c-0.147,0.958-0.068,1.897,0.185,2.771c-1.315-1.4-2-3.362-1.687-5.405    c0.541-3.533,3.851-5.957,7.393-5.414c2.581,0.396,4.567,2.26,5.248,4.608C77.698,69.409,76.405,68.685,74.911,68.456z     M78.149,49.664c-2.576-1.339-3.576-4.517-2.234-7.1c0.978-1.882,2.93-2.922,4.914-2.833c-1.036,0.471-1.93,1.276-2.496,2.365    c-1.342,2.582-0.342,5.761,2.233,7.1c0.699,0.363,1.441,0.548,2.18,0.581C81.326,50.423,79.638,50.438,78.149,49.664z"/><path d="M91.815,77.52c-1.047-0.984-1.666-1.984-3.216-1.984c-1.79,0-2.328,1.655-3.402,2.92c-0.866,1.02-2.451,1.49-2.451,2.933    c0,1.684,1.743,2.688,2.882,3.755c1.047,0.982,1.423,2.097,2.971,2.097c1.866,0,3.644-2.157,4.716-3.517    c0.785-0.996,1.137-0.969,1.137-2.336C94.452,79.707,92.952,78.587,91.815,77.52z"/><path d="M83.518,88.45c-0.629-0.591-1.438-1.337-2.369-1.337c-1.076,0-1.735,0.909-2.381,1.67c-0.52,0.613-1.137,0.98-1.137,1.847    c0,1.012,0.869,1.677,1.554,2.319c0.629,0.59,1.04,0.75,1.97,0.75c1.121,0,2.511-0.266,3.155-1.083    c0.472-0.599,0.356-1.165,0.356-1.986C84.666,89.62,84.201,89.092,83.518,88.45z"/><path d="M93.22,24.34c-0.683-0.641-1.191-1.972-2.202-1.972c-1.167,0-1.518,1.079-2.218,1.904    c-0.564,0.665-1.598,0.971-1.598,1.912c0,1.098,1.315,1.251,2.057,1.947c0.682,0.64,0.75,1.869,1.759,1.869    c1.217,0,1.741-1.407,2.44-2.294c0.512-0.649,1.376-0.631,1.376-1.522C94.834,25.087,93.961,25.036,93.22,24.34z"/></g></g></g><g id="SvgjsG1010" featurekey="text1" fill="#7f7f7f" transform="matrix(3.9765694948539676,0,0,3.9765694948539676,40.003191117158906,96.41073380441375)"><path d="M3.46 16.12 c-0.36 0.56 -0.8 1.4 -1.26 2.5 c1.12 2.72 2.26 5.5 2.1 5.58 c-0.2 0.08 -1.24 -2.44 -2.3 -5.04 c-0.56 1.36 -1.12 3.06 -1.62 5.08 c-0.02 0.1 -0.4 0 -0.38 -0.08 c0.46 -1.82 1.02 -3.7 1.62 -5.2 l0.14 -0.36 l-1.76 -4.3 c-0.02 -0.08 0.34 -0.24 0.38 -0.14 l1.6 3.92 c0.38 -0.84 0.76 -1.58 1.16 -2.22 c0.92 -1.5 1.62 -1.94 1.74 -1.78 c0.1 0.18 -0.54 0.6 -1.42 2.04 z M5.9399999999999995 18.240000000000002 c0 0 -0.36 0.08 -0.44 -0.08 c-0.1 -0.16 -0.06 -0.78 -0.06 -0.78 c0.1 -0.1 0.44 -0.08 0.52 0 c0.04 0.06 -0.02 0.86 -0.02 0.86 z M6.5 22.04 c-0.4 0 -0.66 -0.5 -0.82 -1.58 c-0.12 -0.72 -0.16 -1.42 -0.14 -1.44 c0.06 -0.08 0.32 -0.08 0.4 -0.02 c0 0.02 0.02 0.72 0.12 1.4 c0.18 1.22 0.44 1.24 0.44 1.24 c0.22 0 0.52 -0.6 0.66 -1.04 c0 0 0.14 0.04 0.24 0.1 c0.16 0.06 0 0.4 -0.12 0.64 c-0.22 0.46 -0.5 0.7 -0.78 0.7 z M8.92 20.740000000000002 c0 0.02 -0.62 1.06 -0.98 1.76 c0.1 0.6 -0.06 0.94 -0.18 1.1 c-0.12 0.14 -0.26 0.22 -0.42 0.22 c-0.08 0 -0.16 -0.04 -0.2 -0.1 c-0.06 -0.12 -0.06 -0.26 0.16 -0.78 l0.24 -0.5 l-0.04 -0.1 c-0.32 -1.32 -0.5 -2.36 -0.52 -3.08 l0 -0.1 c0 -0.5 0.12 -1.16 0.6 -1.16 c0.6 0 0.64 1.14 0.38 1.14 c-0.14 0 -0.08 -0.72 -0.4 -0.72 c-0.18 0 -0.18 0.7 -0.18 0.78 c0 0.62 0.14 1.52 0.42 2.68 c0 0 0 -0.02 0.02 -0.02 l0 0.04 c0.34 -0.64 0.74 -1.32 0.76 -1.36 z  M11.3 15.54 c-0.06 -0.22 4.3 -1.44 6.02 -1.74 c1.08 -0.2 2.02 -0.3 2.84 -0.32 c1.66 -0.04 2.8 0.24 3.4 0.86 c0.68 0.66 0.44 1.5 0.24 1.44 c-0.18 -0.06 -0.02 -0.68 -0.52 -1.18 c-0.52 -0.52 -1.6 -0.76 -3.12 -0.72 c-0.58 0.02 -1.24 0.08 -1.96 0.18 c-0.14 1.22 -0.3 4.26 -0.3 6.26 c0 3.44 0.58 3.96 0.4 4.1 c-0.12 0.1 -0.8 -0.46 -0.8 -4.08 c0 -0.4 0 -0.84 0.02 -1.28 c0.06 -1.9 0.24 -4.32 0.28 -4.94 l-0.52 0.08 c-1.68 0.3 -5.92 1.5 -5.98 1.34 z M23.02 20.62 c0 0 0.38 0.16 0.36 0.28 c-0.04 0.2 -0.08 0.46 -0.16 0.72 c-0.18 0.76 -0.38 1.06 -0.64 1.06 l-0.02 0 c-0.38 0 -0.5 -0.6 -0.54 -0.8 c-0.04 -0.22 -0.12 -0.92 -0.14 -1.1 c-0.02 -0.38 -0.06 -0.78 -0.1 -1.08 c-0.06 -0.36 -0.14 -0.46 -0.16 -0.48 c-0.02 0 -0.16 0.08 -0.32 0.6 c-0.12 0.4 -0.24 0.9 -0.32 1.32 c-0.14 0.76 -0.18 0.94 -0.36 1 c-0.08 0.02 -0.16 0 -0.22 -0.06 c-0.08 -0.08 -0.18 -0.16 -0.28 -2.22 l-0.12 -3.9 c-0.02 -0.38 -0.06 -1.06 -0.04 -1.08 c0.02 -0.04 0.1 -0.06 0.14 -0.06 c0.06 0 0.22 0 0.24 0.14 c0.06 0.2 0.04 0.62 0.06 1 l0.12 3.76 c0.02 0.58 0.06 1.02 0.08 1.32 c0.24 -1.24 0.48 -2.18 1 -2.22 c0.1 -0.02 0.2 0.02 0.28 0.08 c0.26 0.24 0.34 0.86 0.4 1.84 c0.02 0.16 0.06 0.72 0.12 1 c0.06 0.34 0.12 0.48 0.16 0.52 c0.06 -0.06 0.16 -0.26 0.3 -0.84 c0.1 -0.42 0.16 -0.8 0.16 -0.8 z M24.02 21.8 c-0.7 0 -1.08 -0.86 -1.08 -1.68 c0 -0.32 0.06 -0.62 0.18 -0.84 c0.14 -0.28 0.38 -0.44 0.66 -0.44 c0.36 0 0.64 0.36 0.64 0.86 c0 0.28 -0.1 0.56 -0.28 0.76 c-0.12 0.16 -0.34 0.32 -0.68 0.36 c0.12 0.34 0.3 0.58 0.56 0.58 c0.5 0 0.96 -0.64 1.08 -0.9 c0 0 0.34 0.22 0.32 0.28 c-0.16 0.26 -0.68 1.02 -1.4 1.02 z M23.78 19.240000000000002 c-0.06 0 -0.2 0 -0.3 0.22 c-0.1 0.18 -0.14 0.4 -0.14 0.66 c0 0.1 0 0.22 0.02 0.32 c0.2 -0.02 0.36 -0.1 0.48 -0.24 c0.12 -0.12 0.18 -0.32 0.18 -0.5 c0 -0.22 -0.1 -0.46 -0.24 -0.46 z  M29.34 24.62 c-0.24 0 -0.44 -0.1 -0.62 -0.28 c-0.34 -0.38 -0.58 -1.08 -0.72 -2.16 c-0.12 -0.82 -0.18 -1.88 -0.18 -3.12 c0 -2.1 0.14 -4.04 0.14 -4.06 c0.08 -0.08 0.34 -0.04 0.4 0.04 c0.02 0 -0.14 1.94 -0.14 4.04 c0 1.2 0.06 2.24 0.18 3.06 c0.16 1.22 0.42 1.72 0.62 1.92 c0.1 0.12 0.2 0.16 0.32 0.16 c0.06 0 0.32 -0.04 0.74 -0.74 c0.94 -1.5 1.8 -4.6 1.82 -7 c0 -1.7 -0.42 -2.3 -0.24 -2.4 c0.18 -0.08 0.64 0.54 0.64 2.44 c0 0.9 -0.14 1.8 -0.24 2.44 c-0.34 1.82 -0.98 3.68 -1.64 4.74 c-0.38 0.62 -0.74 0.92 -1.08 0.92 z M35.18 29.28 c-0.34 0 -0.64 -0.22 -0.84 -0.62 c-0.18 -0.4 -0.3 -0.98 -0.3 -1.66 c0 -1.04 0.56 -2.46 1.66 -4.2 l0.46 -0.68 l-0.08 -0.42 c-0.14 -0.84 -0.3 -1.36 -0.4 -1.62 l-0.12 0.54 c-0.18 0.82 -0.36 1.72 -0.94 1.72 c-0.42 0 -0.7 -0.58 -0.94 -1.92 c-0.14 -0.88 -0.2 -1.78 -0.2 -1.8 c0.06 -0.08 0.32 -0.08 0.4 -0.02 c0 0 0.06 0.88 0.2 1.76 c0.26 1.52 0.52 1.58 0.54 1.58 c0.08 0 0.18 -0.14 0.28 -0.38 c0.12 -0.3 0.2 -0.68 0.26 -1.02 c0.06 -0.24 0.1 -0.46 0.16 -0.62 c0.04 -0.12 0.12 -0.38 0.34 -0.38 c0.2 0 0.32 0.16 0.46 0.6 c0.12 0.32 0.22 0.76 0.32 1.28 l0.04 0.24 c0.48 -0.68 0.86 -1.12 0.86 -1.12 l0.3 0.24 c0 0.02 -0.48 0.6 -1.06 1.44 c0.1 0.8 0.22 1.9 0.22 3.2 c0 2.54 -0.82 3.86 -1.62 3.86 z M36.24 22.72 c-0.86 1.3 -1.8 3.02 -1.8 4.28 c0 0.78 0.14 1.24 0.26 1.48 c0.08 0.16 0.24 0.4 0.48 0.4 s0.54 -0.3 0.76 -0.8 c0.22 -0.46 0.46 -1.3 0.46 -2.66 c0 -0.88 -0.06 -1.82 -0.16 -2.7 z M37.96 22.04 c-0.16 0 -0.3 -0.08 -0.42 -0.2 c-0.28 -0.3 -0.32 -0.96 -0.32 -1.4 c-0.18 -0.4 -0.18 -0.84 -0.04 -1.16 c0.14 -0.36 0.42 -0.58 0.78 -0.58 c0.16 0 0.44 0.06 0.62 0.48 c0.12 0.3 0.16 0.66 0.16 0.92 c0 0.24 -0.04 0.52 -0.08 0.78 c0.3 -0.02 0.66 -0.12 1.04 -0.3 l0.16 0.36 c-0.52 0.24 -0.94 0.34 -1.28 0.34 l-0.02 0 l0 0.04 c-0.16 0.48 -0.36 0.72 -0.6 0.72 z M38.260000000000005 20.84 c0.08 -0.44 0.1 -0.9 0.04 -1.24 c-0.06 -0.22 -0.14 -0.5 -0.34 -0.5 c-0.24 0 -0.36 0.18 -0.42 0.32 c-0.04 0.12 -0.06 0.26 -0.06 0.42 c0 0.74 0.6 0.96 0.78 1 z M37.64 20.98 c0.04 0.26 0.1 0.48 0.2 0.6 c0.04 0.04 0.08 0.04 0.1 0.06 c0.04 -0.04 0.14 -0.16 0.22 -0.42 c-0.22 -0.04 -0.38 -0.14 -0.52 -0.24 z M42.96000000000001 22.08 c-0.44 0 -0.58 -0.64 -0.72 -1.32 c-0.04 -0.24 -0.08 -0.46 -0.14 -0.62 c-0.04 -0.16 -0.08 -0.22 -0.1 -0.26 c-0.06 0.1 -0.14 0.36 -0.18 0.52 s-0.08 0.32 -0.14 0.44 c-0.1 0.22 -0.22 0.32 -0.38 0.32 c-0.28 0 -0.4 -0.28 -0.44 -0.38 l-0.18 -0.6 c-0.04 -0.18 -0.1 -0.44 -0.16 -0.58 l-0.04 0.22 c-0.02 0.18 -0.02 0.42 -0.02 0.62 l-0.04 0.68 c-0.02 0.1 -0.06 0.46 -0.34 0.46 c-0.3 0 -0.38 -0.44 -0.42 -0.6 c-0.04 -0.22 -0.04 -0.44 -0.04 -0.46 c0 -0.1 0.4 -0.1 0.4 0 c0 0.08 0 0.14 0.02 0.22 c0 -0.1 0.02 -0.22 0.02 -0.3 c0 -0.28 0 -0.56 0.04 -0.78 c0.02 -0.14 0.08 -0.52 0.38 -0.52 c0.36 0 0.48 0.46 0.6 0.94 l0.12 0.48 l0.08 0.18 c0.06 -0.1 0.12 -0.32 0.16 -0.46 c0.1 -0.4 0.22 -0.82 0.56 -0.82 c0.3 0 0.42 0.34 0.46 0.46 l0.18 0.76 c0.04 0.26 0.1 0.52 0.16 0.72 c0.08 0.24 0.14 0.28 0.16 0.28 c0.18 0 0.38 -0.34 0.8 -1.12 l0.34 0.18 c-0.44 0.88 -0.7 1.34 -1.14 1.34 z M45.96 22.2 c-0.18 0 -0.42 -0.08 -0.56 -0.46 c-0.06 -0.2 -0.1 -0.46 -0.12 -0.7 c0 -0.1 -0.02 -0.22 -0.02 -0.32 c-0.06 0.08 -0.12 0.22 -0.18 0.32 c-0.18 0.36 -0.44 0.88 -0.94 0.88 c-0.08 0 -0.26 -0.04 -0.36 -0.28 c-0.04 -0.12 -0.06 -0.28 -0.06 -0.46 c0 -0.76 0.38 -2.18 1.12 -2.18 c0.58 0 0.74 0.7 0.56 0.76 c-0.14 0.06 -0.2 -0.36 -0.56 -0.36 c-0.14 0 -0.3 0.2 -0.44 0.5 s-0.24 0.68 -0.26 1.02 c-0.04 0.36 0 0.54 0.02 0.6 c0.24 -0.04 0.42 -0.36 0.56 -0.66 c0.16 -0.32 0.32 -0.6 0.58 -0.6 c0.1 0 0.26 0.04 0.34 0.32 c0.02 0.12 0.04 0.26 0.04 0.42 c0.02 0.22 0.04 0.46 0.1 0.62 c0.06 0.18 0.14 0.18 0.18 0.18 c0.06 0 0.24 -0.12 0.44 -0.56 c0.16 -0.32 0.26 -0.66 0.26 -0.66 s0.36 0.18 0.34 0.28 l-0.24 0.56 c-0.26 0.52 -0.52 0.78 -0.8 0.78 z M48.74 22.02 c-0.24 0 -0.42 -0.2 -0.52 -0.56 c-0.06 -0.26 -0.1 -0.6 -0.14 -0.94 c-0.04 -0.32 -0.08 -0.64 -0.14 -0.88 c-0.04 -0.18 -0.1 -0.26 -0.14 -0.26 c-0.06 0 -0.12 0.12 -0.18 0.32 c-0.06 0.26 -0.08 0.62 -0.12 0.94 l-0.06 0.68 c-0.04 0.12 -0.1 0.44 -0.36 0.44 c-0.08 0 -0.16 -0.02 -0.22 -0.08 c-0.06 -0.08 -0.16 -0.22 -0.18 -0.7 c-0.02 -0.24 -0.02 -0.46 -0.02 -0.46 c0.02 -0.1 0.4 -0.1 0.4 0 c0 0.12 0 0.32 0.02 0.48 c0 -0.14 0.02 -0.28 0.02 -0.38 c0.04 -0.34 0.06 -0.72 0.14 -1.02 c0.1 -0.4 0.28 -0.62 0.56 -0.62 c0.24 0 0.42 0.18 0.54 0.56 c0.06 0.26 0.1 0.6 0.14 0.94 c0.04 0.32 0.06 0.64 0.12 0.88 c0.06 0.18 0.12 0.26 0.14 0.26 c0 0 0.16 -0.02 0.46 -0.5 c0.18 -0.28 0.3 -0.54 0.3 -0.56 l0.36 0.18 c0 0.02 -0.14 0.3 -0.32 0.6 c-0.3 0.46 -0.56 0.68 -0.8 0.68 z M51.68 22.2 c-0.18 0 -0.42 -0.08 -0.56 -0.46 c-0.06 -0.2 -0.1 -0.46 -0.12 -0.7 c0 -0.1 -0.02 -0.22 -0.02 -0.32 c-0.06 0.08 -0.12 0.22 -0.18 0.32 c-0.18 0.36 -0.44 0.88 -0.94 0.88 c-0.08 0 -0.26 -0.04 -0.36 -0.28 c-0.04 -0.12 -0.06 -0.28 -0.06 -0.46 c0 -0.76 0.38 -2.18 1.12 -2.18 c0.58 0 0.74 0.7 0.56 0.76 c-0.14 0.06 -0.2 -0.36 -0.56 -0.36 c-0.14 0 -0.3 0.2 -0.44 0.5 s-0.24 0.68 -0.26 1.02 c-0.04 0.36 0 0.54 0.02 0.6 c0.24 -0.04 0.42 -0.36 0.56 -0.66 c0.16 -0.32 0.32 -0.6 0.58 -0.6 c0.1 0 0.26 0.04 0.34 0.32 c0.02 0.12 0.04 0.26 0.04 0.42 c0.02 0.22 0.04 0.46 0.1 0.62 c0.06 0.18 0.14 0.18 0.18 0.18 c0.06 0 0.24 -0.12 0.44 -0.56 c0.16 -0.32 0.26 -0.66 0.26 -0.66 s0.36 0.18 0.34 0.28 l-0.24 0.56 c-0.26 0.52 -0.52 0.78 -0.8 0.78 z M55.18 20.84 c-0.28 0.22 -0.58 0.34 -0.8 0.34 c-0.32 0 -0.48 -0.2 -0.5 -0.22 c-0.04 0.3 -0.12 0.54 -0.24 0.68 c-0.12 0.12 -0.26 0.18 -0.42 0.18 l-0.02 0 c-0.28 0 -0.66 -0.22 -0.82 -1.12 c-0.08 -0.48 -0.12 -1.14 -0.1 -1.32 c0.02 -0.1 0.4 -0.04 0.4 0.02 c0.02 0.44 0.04 2.02 0.54 2.02 c0.04 0 0.08 -0.02 0.12 -0.04 c0.2 -0.24 0.2 -1.04 0.12 -1.64 c-0.02 -0.14 0.38 -0.18 0.4 -0.06 c0.08 0.46 0.26 1.1 0.52 1.1 c0.12 0 0.28 -0.06 0.44 -0.16 c0.04 -0.04 0.38 0.2 0.36 0.22 z M55.68 22.22 c-0.08 0 -0.22 -0.02 -0.36 -0.16 c-0.22 -0.24 -0.4 -0.74 -0.52 -1.56 c-0.08 -0.62 -0.14 -1.42 -0.18 -2.36 c0 -0.4 -0.02 -0.76 -0.02 -1.14 c-1.36 0.06 -2.04 -0.08 -2.06 -0.12 c-0.14 -0.34 0.38 -0.1 2.06 -0.22 c0 -0.94 0.02 -1.68 0.02 -1.68 c0.06 -0.08 0.32 -0.06 0.4 0 c0 0.02 -0.04 0.74 -0.04 1.66 c0.44 -0.04 0.94 -0.12 1.54 -0.22 c0.4 -0.06 0.48 0.32 0.2 0.36 l-1.24 0.16 c-0.18 0.02 -0.34 0.04 -0.5 0.04 c0 0.38 0.02 0.74 0.04 1.14 c0.1 2.76 0.42 3.48 0.6 3.66 c0.02 0.04 0.04 0.04 0.06 0.04 c0.36 0 0.64 -0.8 0.74 -1.18 c0 0 0.38 0.12 0.36 0.18 c-0.08 0.34 -0.4 1.4 -1.1 1.4 z M58.18 20.740000000000002 c0 0.02 -0.62 1.06 -0.98 1.76 c0.1 0.6 -0.06 0.94 -0.18 1.1 c-0.12 0.14 -0.26 0.22 -0.42 0.22 c-0.08 0 -0.16 -0.04 -0.2 -0.1 c-0.06 -0.12 -0.06 -0.26 0.16 -0.78 l0.24 -0.5 l-0.04 -0.1 c-0.32 -1.32 -0.5 -2.36 -0.52 -3.08 l0 -0.1 c0 -0.5 0.12 -1.16 0.6 -1.16 c0.6 0 0.64 1.14 0.38 1.14 c-0.14 0 -0.08 -0.72 -0.4 -0.72 c-0.18 0 -0.18 0.7 -0.18 0.78 c0 0.62 0.14 1.52 0.42 2.68 c0 0 0 -0.02 0.02 -0.02 l0 0.04 c0.34 -0.64 0.74 -1.32 0.76 -1.36 z"/></g><g id="SvgjsG1011" featurekey="text3" fill="#94ccf5" transform="matrix(0.8274114269410131,0,0,0.8274114269410131,106.58629502629296,224.1182721075994)"><path d="M12.98 13.1 c0 2.64 -1.32 7.04 -5.86 7.04 c-1.7 0 -2.64 -0.48 -2.64 -1.2 c0 -0.76 0.9 -0.76 0.9 -0.76 s0.28 0.96 1.94 0.96 c2.9 0 4.06 -3.18 4.06 -6.04 c0 -2.08 -0.94 -5.92 -5.06 -5.92 c-0.42 0 -1.86 0 -2.78 0.44 l0 10 c0 0.82 -0.2 2.38 -1.86 2.38 l-1.18 0 l0 -0.6 l0.44 0 c0.74 0 1.14 -0.68 1.14 -1.28 l0 -9.98 c0 -0.62 -0.22 -1.1 -0.94 -1.1 l-0.64 0 l0 -0.58 l1.92 0 c1.34 0 2.66 -0.28 4.1 -0.28 c5.84 0 6.46 4.92 6.46 6.92 z M24.439999999999998 16.759999999999998 c1.22 2.22 1.54 2.58 2.32 2.58 l0 0.12 c0 0.56 -0.56 0.82 -1.18 0.82 c-0.96 0 -1.44 -0.94 -2.16 -2.3 c-0.78 -1.46 -1.9 -3.62 -3.66 -3.62 c-0.32 0 -0.98 -0.18 -0.98 -0.68 c0 -0.22 0.08 -0.52 0.22 -0.72 c0 0 0.5 0.32 1.16 0.32 c2.2 0 3.12 -1.82 3.12 -2.98 c0 -1.54 -0.8 -3.24 -3.54 -3.24 c-0.74 0 -1.82 0.2 -2.44 0.56 l0 10.56 c0 0.74 0.44 1.22 1.12 1.22 l0.74 0 l0 0.6 l-5.04 0 l0 -0.6 l0.58 0 c0.76 0 1.14 -0.42 1.14 -1.22 l0 -10.24 c0 -0.56 -0.44 -0.9 -1.14 -0.9 l-0.58 0 l0 -0.58 l1.92 0 c1.56 0 2.32 -0.3 3.82 -0.3 c3.46 0 5 1.8 5 3.96 c0 2.12 -1.84 3.58 -3 3.74 c1.08 0.26 1.98 1.82 2.58 2.9 z M35.76 6.34 c2.08 0 2.5 0.52 2.52 1.9 c0 0.74 -0.52 1.56 -1.18 1.56 c0 -1.8 -0.64 -2.58 -2.9 -2.58 c-1.3 0 -3.1 0.12 -3.1 0.98 l0 4.2 l3.42 0 c1 0 1.16 0.46 1.16 0.76 c0 0.58 -0.72 1.16 -1.28 1.16 c0 -0.54 -0.38 -0.9 -1.28 -0.9 l-2.02 0 l0 4.94 c0 0.72 1.94 0.74 3.34 0.74 c2.62 0 3.3 -1.98 3.3 -2.32 c0.58 0 1.08 0.56 1.08 1.16 c0 1.72 -2 2.06 -3.94 2.06 l-6.84 0 l0 -0.72 l0.66 0 c0.42 0 0.96 -0.26 0.96 -0.9 l0 -10.4 c0 -0.36 -0.14 -0.94 -0.96 -0.94 l-0.62 0 l0 -0.58 l2.84 0 c0.98 0 3.82 -0.12 4.84 -0.12 z M52.02 19.4 l0.5 0 l0 0.6 l-4.32 0 l0 -0.6 l0.48 0 c0.38 -0.02 0.6 -0.26 0.6 -0.54 c0 -0.14 -0.02 -0.28 -0.08 -0.44 c-0.26 -0.74 -0.86 -2.48 -1.02 -2.9 l-5.46 0 c-0.46 0.96 -1.08 2.42 -1.08 3.14 s0.2 1.18 0.5 1.2 c0 0.1 -0.34 0.48 -1.16 0.48 c-0.94 0 -1.04 -0.94 -1.04 -1.3 c0 -0.84 0.58 -1.96 1.1 -2.98 c1.88 -3.72 3.56 -7.18 3.56 -8.28 c0 -0.88 -0.58 -0.98 -0.74 -1 c0 -0.2 0.36 -0.6 1.1 -0.6 c1.26 0 1.78 1.06 2.18 2.18 c0.28 0.8 3.58 9.88 3.58 9.88 c0.3 0.82 0.96 1.16 1.3 1.16 z M43.24 14.379999999999999 l4.56 0 c-0.7 -1.86 -1.36 -3.82 -2.04 -5.68 c-0.34 0.8 -0.96 2.58 -2.52 5.68 z M71.22 19.4 l0 0.6 l-4.32 0 l0 -0.6 l0.22 0 c0.58 0 0.7 -0.52 0.7 -0.9 c0 -0.12 -0.14 -1.58 -0.3 -3.22 c-0.2 -2.16 -0.48 -5.04 -0.56 -6.02 c0 -0.22 0 -0.58 -0.02 -0.58 c-0.08 0 -0.68 1.46 -1.56 3.66 c-0.72 1.78 -1.68 4.22 -2.84 6.74 c-0.34 0.74 -0.82 0.92 -1.36 0.92 c-0.32 0 -0.56 -0.18 -0.56 -0.28 c0.06 -0.12 0.12 -0.32 0.12 -0.7 c0 -0.94 -2.16 -5.5 -2.94 -7.34 c-0.96 -2.28 -1.28 -3.04 -1.34 -3.04 c-0.12 0 -0.8 9.22 -0.8 9.62 c0 0.7 0.18 1.14 0.72 1.14 l0.22 0 l0 0.6 l-4.12 0 l0 -0.6 l0.36 0 c1.06 0 1.48 -0.86 1.52 -1.36 l0.82 -10.06 c-0.02 -0.5 -0.24 -0.94 -1.02 -0.94 l-0.72 0 l0 -0.58 l2.24 0 c1.18 0 1.66 0.36 2.2 1.7 c1.34 3.28 2.62 6 3.98 9.5 c1.48 -3.44 2.48 -6.26 3.66 -9.1 c0.2 -0.5 0.88 -2.1 2.38 -2.1 l2.24 0 l0 0.58 l-0.68 0 c-0.66 0 -1.1 0.28 -1.1 0.86 c0.02 0.34 0.12 1.7 0.98 10.06 c0.1 0.9 0.72 1.44 1.42 1.44 l0.46 0 z  M89.64000000000001 9.86 c0 1.5 -0.78 2.32 -1.88 2.86 c1.2 0.3 2.56 1.36 2.56 3.34 c0 2.18 -1.46 3.94 -4.78 3.94 l-6.68 0 l0 -0.6 l0.52 0 c0.76 0 1.08 -0.5 1.08 -0.94 l0 -10.5 c0 -0.6 -0.42 -0.9 -0.88 -0.9 l-0.72 0 l0 -0.6 l1.92 0 c0.66 0 1.34 -0.08 1.94 -0.14 c0.64 -0.08 1.34 -0.14 2.16 -0.14 c3.72 0 4.76 1.92 4.76 3.68 z M85.26 19.06 c2.6 0 3.5 -1.72 3.5 -2.86 c0 -1.02 -0.48 -2.66 -2.56 -2.66 c-0.38 0 -1.04 0.12 -1.46 0.12 c-0.6 0 -0.94 -0.24 -0.94 -0.76 c0 -0.28 0.3 -0.54 0.3 -0.54 s0.84 0.1 1.3 0.1 c1.6 0 2.68 -1.08 2.68 -2.48 c0 -1.26 -0.56 -2.86 -3.58 -2.86 c-0.76 0 -1.96 0.16 -2.6 0.52 l0 10.92 c0.06 0.06 0.54 0.5 3.36 0.5 z M94.9 7.9 l0 10.4 c0 0.72 0.54 1.1 0.96 1.1 l0.56 0 l0 0.6 l-4.52 0 l0 -0.6 l0.56 0 c0.64 0 0.98 -0.48 0.98 -1.1 l0 -10.4 c0 -0.56 -0.44 -0.86 -0.98 -0.86 l-0.58 0 l0 -0.58 l4.54 0 l0 0.58 l-0.66 0 c-0.5 0 -0.86 0.4 -0.86 0.86 z M105.16000000000001 20.32 c-4.1 0 -6.86 -3.06 -6.86 -6.98 c0 -5.36 4.1 -7.16 7 -7.16 c2.48 0 4.72 0.3 4.72 2.46 c0 1.5 -0.92 1.76 -1.32 1.76 c0 -1.96 -0.44 -3.26 -2.9 -3.26 c-3.74 0 -5.86 2.86 -5.86 6.2 c0 4.38 3.36 5.98 5.66 5.98 c1.74 0 2.74 -0.42 2.74 -1.52 l0 -2.22 c0 -0.48 -0.14 -1.06 -1.18 -1.06 l-0.88 0 l0 -0.64 l5.12 0 l0 0.64 l-0.9 0 c-0.36 0 -0.72 0.32 -0.72 0.96 l0 2.4 c0 0.46 0 1.52 0.74 1.52 l0.32 0 l0 0.6 l-1.2 0 c-2.12 0 -2.3 0.32 -4.48 0.32 z M114.52000000000001 7.460000000000001 c-0.02 2.18 -0.14 4.84 -0.36 7.68 c-0.06 0.66 -0.18 1.54 -1.3 1.54 c0.08 -0.42 0.16 -1.14 0.16 -2.56 c0 -3.46 0 -7.1 -0.42 -7.94 c0.14 -0.26 0.5 -0.28 0.72 -0.28 c0.84 0 1.2 0.78 1.2 1.56 z M114.74000000000001 19.12 c0 0.64 -0.52 0.98 -1.18 0.98 c-0.58 0 -1.14 -0.36 -1.14 -0.98 c0 -0.66 0.54 -1.04 1.14 -1.04 c0.72 0 1.18 0.38 1.18 1.04 z M117.72000000000001 7.460000000000001 c-0.02 2.18 -0.14 4.84 -0.36 7.68 c-0.06 0.66 -0.18 1.54 -1.3 1.54 c0.08 -0.42 0.16 -1.14 0.16 -2.56 c0 -3.46 0 -7.1 -0.42 -7.94 c0.14 -0.26 0.5 -0.28 0.72 -0.28 c0.84 0 1.2 0.78 1.2 1.56 z M117.94000000000001 19.12 c0 0.64 -0.52 0.98 -1.18 0.98 c-0.58 0 -1.14 -0.36 -1.14 -0.98 c0 -0.66 0.54 -1.04 1.14 -1.04 c0.72 0 1.18 0.38 1.18 1.04 z"/></g></svg>