<?xml version="1.0" ?><svg height="1250" id="svg3336" version="1.1" viewBox="0 0 1250 1250" width="1250" xmlns="http://www.w3.org/2000/svg" xmlns:cc="http://creativecommons.org/ns#" xmlns:dc="http://purl.org/dc/elements/1.1/" xmlns:inkscape="http://www.inkscape.org/namespaces/inkscape" xmlns:rdf="http://www.w3.org/1999/02/22-rdf-syntax-ns#" xmlns:sodipodi="http://sodipodi.sourceforge.net/DTD/sodipodi-0.dtd" xmlns:svg="http://www.w3.org/2000/svg"><defs id="defs3340"/><g id="g3815"><path d="m 441.05419,1181.1622 c -0.0455,-6.1858 -0.26887,-16.5907 -0.49651,-23.1219 -0.22762,-6.5313 -0.79857,-27.9063 -1.26876,-47.5 -0.47019,-19.5938 -1.1521,-36.684 -1.51535,-37.9783 -0.526,-1.8742 -6.61261,3.5949 -29.8986,26.865 l -29.23815,29.2183 0,-125.3025 0,-125.30251 -125.12989,0 -125.12989,0 28.7619,-29.68665 c 18.57938,-19.17672 28.25052,-30.02367 27.31739,-30.63863 -0.79447,-0.52359 -7.91326,-0.85845 -15.81951,-0.74412 -34.9452,0.50533 -101.25,-0.45682 -101.25,-1.46923 0,-0.6097 41.625,-42.81394 92.5,-93.78719 50.875,-50.97326 92.5,-93.04188 92.5,-93.48581 0,-0.44394 -41.9606,-42.77055 -93.24578,-94.05915 l -93.245773,-93.25199 31.683277,-0.9136 c 17.425806,-0.50248 41.245776,-0.89623 52.933276,-0.875 11.6875,0.0213 24.43012,-0.35565 28.31695,-0.83751 l 7.06695,-0.87612 -28.76951,-29.6875 -28.76953,-29.6875 125.14006,0 125.14008,0 0,-125.30273 0,-125.30273 29.80881,29.7894 29.80883,29.78941 0.80728,-8.54917 c 0.44402,-4.70205 0.88912,-22.89293 0.98912,-40.42418 0.1,-17.53125 0.52587,-41.019953 0.94638,-52.197122 l 0.76458,-20.322127 93.5672,93.579939 93.56719,93.57993 93.64133,-93.75762 c 51.50274,-51.56668 93.87948,-93.519458 94.17055,-93.228392 0.29107,0.291065 0.66294,25.196343 0.82638,55.345062 0.16345,30.14872 0.61897,56.67246 1.01226,58.94166 l 0.71509,4.12581 29.6875,-28.11701 29.6875,-28.11701 0,125.08345 0,125.08343 125.30228,0 125.3023,0 -28.6826,28.703 c -15.7755,15.78664 -28.2646,29.12103 -27.7537,29.63197 0.511,0.51093 6.1102,1.06708 12.4429,1.23588 6.3326,0.16879 24.4513,0.69267 40.2638,1.16415 28.7085,0.85602 45.846,1.31573 59.9969,1.60942 l 7.4969,0.15558 -93.4344,93.4406 c -51.3889,51.39234 -93.4344,94.00314 -93.4344,94.69068 0,0.68752 41.625,42.87221 92.5,93.74372 50.875,50.87152 92.5,92.90347 92.5,93.40434 0,0.82466 -54.3412,1.43454 -87.8509,0.98595 -7.4118,-0.0992 -18.0172,0.21575 -23.5676,0.69991 l -10.0917,0.88032 29.8079,29.82723 29.8078,29.82725 -125.3027,0 -125.30278,0 0,125.08341 0,125.0835 -29.6875,-28.1153 -29.6875,-28.1153 -0.74348,5.8443 c -0.40891,3.2144 -0.85033,29.7233 -0.98095,58.9087 -0.13061,29.1853 -0.52237,53.3492 -0.87058,53.6974 -0.34822,0.3482 -42.65585,-41.3897 -94.01699,-92.7508 l -93.38388,-93.3839 -94.06456,94.0584 -94.06456,94.0584 -0.0826,-11.2469 z m 220.08263,-436.24691 0,-98.125 32.88007,0 32.88008,0 4.64692,-35.9375 c 2.55582,-19.76562 4.63478,-36.63225 4.61993,-37.4814 -0.0206,-1.18243 -8.73336,-1.62141 -37.2145,-1.875 l -37.1875,-0.3311 0,-31.25 c -3.42786,-49.55122 20.23757,-54.61376 50.95769,-55.29592 l 27.20768,-0.57449 -0.33268,-33.31479 -0.33269,-33.3148 -8.75,-1.02562 c -4.8125,-0.56409 -21.6875,-1.12659 -37.5,-1.25 -34.0412,-0.26568 -42.11101,1.08154 -60.625,10.12101 -22.45863,10.96545 -37.3805,30.1852 -44.64184,57.49983 -3.05927,11.50793 -3.2616,14.20036 -3.80194,50.59228 l -0.57071,38.4375 -32.36775,0 -32.36776,0 0,37.5 0,37.5 32.5,0 32.5,0 0,98.125 0,98.125 38.75,0 38.75,0 z" id="path3821" style="fill:#4565a6"/><path d="m 378.63682,1002.5991 0,-124.54673 -124.28596,-0.31854 -124.28598,-0.31854 26.47348,-27.57893 c 14.5604,-15.16842 31.999,-33.59029 38.75243,-40.9375 l 12.27899,-13.35857 -7.27899,-0.12771 c -4.00343,-0.0703 -20.91958,-0.21087 -37.59145,-0.3125 -16.67186,-0.10162 -30.31248,-0.46764 -30.3125,-0.81334 -1e-5,-0.3457 37.12499,-37.75036 82.5,-83.12147 l 82.50003,-82.49293 -82.75868,-82.7657 c -45.51727,-45.52113 -82.47517,-83.04921 -82.12867,-83.39572 0.34651,-0.34651 13.25979,-0.72441 28.69616,-0.8398 15.37114,-0.0821 30.71709,-0.39786 46.0445,-1.48528 l -12.11419,-13.18133 c -6.66278,-7.24974 -24.02723,-25.59187 -38.58763,-40.76028 l -26.47348,-27.57894 124.28598,-0.31853 124.28596,-0.31854 0,-124.56653 0,-124.56652 24.71107,24.26006 c 13.59109,13.34304 31.9672,31.2705 41.08947,39.5636 l 18.28747,16.62521 c 26.0896,-102.94653 204.3921,181.43818 83.21641,4.12568 l 83.32761,83.32065 82.44262,-82.44973 c 45.34345,-45.34735 82.73202,-82.16035 83.0857,-81.80667 0.35368,0.35369 0.73764,12.56542 0.85324,27.1372 0.11563,14.57176 0.27234,30.8924 0.3483,36.26806 l 0.13814,9.77394 10.77979,-9.77394 c 5.92887,-5.37566 24.35075,-22.5334 40.9375,-38.1283 l 30.15771,-28.35437 0.31854,124.29187 0.31853,124.29186 124.60648,0 124.6065,0 -21.8187,22.1875 c -12.0003,12.20313 -29.7573,30.625 -39.4601,40.9375 -17.1663,18.24514 -17.5361,18.7532 -13.7313,18.86879 2.1505,0.0654 19.3788,0.54448 38.285,1.06474 18.9063,0.52027 34.632,1.19259 34.9462,1.49404 0.3141,0.30145 -36.6703,37.79265 -82.1876,83.31378 l -82.7586,82.7657 82.4497,82.44262 c 45.3473,45.34345 82.1675,82.72478 81.8227,83.06965 -0.3449,0.34486 -14.8066,0.74038 -32.1372,0.87895 -17.3306,0.13855 -34.5281,0.3025 -38.2167,0.36432 l -6.7065,0.11238 17.9379,19.0625 c 9.8658,10.48437 27.7562,29.04687 39.7565,41.25 l 21.8187,22.1875 -124.6065,0 -124.60648,0 -0.31853,124.29184 -0.31854,124.2919 -30.15771,-28.3544 c -16.58675,-15.5949 -35.00863,-32.7526 -40.9375,-38.1283 l -10.77979,-9.7739 -0.0985,5.399 c -0.0541,2.9694 -0.26305,19.4614 -0.46423,36.6489 -0.20117,17.1875 -0.43812,31.8109 -0.52655,32.4965 -0.0884,0.6855 -37.42798,-36.0176 -82.9768,-81.5626 l -82.81602,-82.80896 -82.42051,82.42766 c -45.33129,45.3351 -82.80015,82.1929 -83.26415,81.9062 -0.46402,-0.2868 -0.99113,-9.6761 -1.17139,-20.8651 -0.18026,-11.189 -0.41664,-23.4375 -0.52529,-27.2187 -0.10862,-3.7813 -0.31884,-11.8608 -0.46707,-17.9545 l -0.26949,-11.0796 -16.51301,15.4546 c -9.08217,8.5 -27.64467,26.3626 -41.25,39.6947 l -24.73699,24.2403 0,-124.5467 z m 283.75,-257.03806 0,-97.47923 32.8125,-0.33327 32.8125,-0.33325 4.58417,-35.625 c 2.52129,-19.59375 4.63067,-36.89062 4.6875,-38.4375 l 0.10333,-2.8125 -37.6231,0 -37.6231,0 0.47147,-32.1875 c 0.44167,-30.15162 0.64364,-32.51357 3.19329,-37.34276 3.32549,-6.29866 8.86919,-11.12845 15.05775,-13.11864 2.76123,-0.88798 15.69535,-1.71178 31.85578,-2.02895 l 27.20708,-0.53396 -0.33208,-34.5816 -0.33209,-34.58159 -8.125,-0.80223 c -19.10249,-1.88613 -54.71055,-2.49273 -65.625,-1.11797 -13.22544,1.66587 -29.03409,6.81477 -39.03455,12.71363 -9.59091,5.65727 -23.652,19.91779 -29.43331,29.85074 -2.59483,4.45821 -6.51349,13.44958 -8.70814,19.98083 l -3.99029,11.875 -0.44517,40.9375 -0.44519,40.9375 -33.03418,0 -33.03417,0 0,38.75 0,38.75 33.125,0 33.125,0 0,97.5 0,97.5 39.375,0 39.375,0 z" id="path3819" style="fill:#395694"/><path d="m 463.62161,1118.6618 c -0.0249,-10.2225 -1.15399,-44.0459 -1.92979,-57.8092 l -0.72224,-12.8127 83.49119,-84.37479 c 45.92015,-46.40615 83.89254,-84.37482 84.38307,-84.37482 0.49054,0 26.26748,26.99478 57.28208,59.9884 31.0146,32.99362 68.03296,71.04351 82.26304,84.55531 14.23007,13.5118 26.17043,25.4701 26.53413,26.5741 0.36372,1.1039 0.36372,18.1823 0,37.952 l -0.66127,35.9448 -82.49648,-82.5073 -82.49647,-82.50736 -82.81603,82.80896 -82.81602,82.809 -0.0152,-6.2464 z M 1052.2648,794.32456 c -5.6955,-0.65335 -6.4979,-1.40272 -89.37503,-83.46832 l -83.62795,-82.80905 84.375,-83.72041 84.37498,-83.72042 12.5,0.63623 c 10.5235,0.53564 45.0932,1.52685 60.6215,1.7382 4.2275,0.0575 1.6654,2.76578 -77.8125,82.25053 -45.20121,45.20506 -82.18398,82.48081 -82.18398,82.835 0,0.35417 36.84375,37.47176 81.87498,82.48351 45.0313,45.01175 81.875,82.22081 81.875,82.6868 0,0.46599 -14.6046,0.84791 -32.4547,0.84873 -17.8502,8.1e-4 -32.897,0.2033 -33.4375,0.44996 -0.5405,0.24667 -3.569,0.15182 -6.7298,-0.21076 z M 146.34943,780.84973 c 7.10181,-7.18229 43.98748,-44.08075 81.96814,-81.99657 37.98066,-37.91583 69.05879,-69.49878 69.0625,-70.18434 0.004,-0.68556 -36.97603,-38.23244 -82.1772,-83.4375 l -82.18395,-82.19103 15.62145,-0.16317 c 8.5918,-0.0897 25.76184,-0.34406 38.15564,-0.56515 l 22.5342,-0.40195 23.7158,24.54499 c 13.0437,13.49973 50.85643,50.64125 84.02831,82.53668 33.17187,31.89544 60.3125,58.47103 60.3125,59.05687 0,0.58583 -27.42188,27.4381 -60.9375,59.67171 -33.51563,32.2336 -71.33398,69.39791 -84.04079,82.58736 l -23.10327,23.9808 -37.93412,-0.18999 -37.9341,-0.19 12.91239,-13.05871 z m 398.82593,-487.70614 -82.78854,-83.64671 0,-14.27727 c 0,-7.85252 0.372,-25.38479 0.82667,-38.96063 l 0.82667,-24.68334 82.88415,82.87713 82.88416,82.87712 82.10504,-82.16226 c 45.15777,-45.18925 82.2633,-82.00402 82.4567,-81.81061 0.19341,0.19341 0.46747,16.78369 0.60905,36.86727 l 0.25738,36.51563 -26.28735,24.9592 c -14.45802,13.72756 -51.69573,51.9889 -82.75045,85.02519 -31.05471,33.0363 -56.86177,60.06598 -57.34902,60.06598 -0.48725,0 -38.14076,-37.64101 -83.67446,-83.6467 z" id="path3817" style="fill:#2f4980"/></g></svg>