<?xml version="1.0" ?><svg height="1250" id="svg2" version="1.1" viewBox="0 0 1250 1250" width="1250" xmlns="http://www.w3.org/2000/svg" xmlns:cc="http://creativecommons.org/ns#" xmlns:dc="http://purl.org/dc/elements/1.1/" xmlns:inkscape="http://www.inkscape.org/namespaces/inkscape" xmlns:rdf="http://www.w3.org/1999/02/22-rdf-syntax-ns#" xmlns:sodipodi="http://sodipodi.sourceforge.net/DTD/sodipodi-0.dtd" xmlns:svg="http://www.w3.org/2000/svg"><defs id="defs6"/><g id="g3338"><path d="m 437.01945,1179.8695 c -0.4044,-5.772 -1.04894,-23.7132 -1.43228,-39.8695 -1.06093,-44.7139 -1.85891,-70.4384 -2.19543,-70.7749 -0.16715,-0.1672 -13.37367,12.3638 -29.34782,27.8466 L 375,1125.2223 l 0,-125.1052 0,-125.10509 -124.92153,-0.3185 -124.92151,-0.31851 28.03695,-29.2804 c 15.42033,-16.10421 27.88191,-29.43545 27.6924,-29.62495 -0.1895,-0.1895 -26.90347,-0.51333 -59.3644,-0.7196 -38.813326,-0.24665 -59.020204,-0.80905 -59.020881,-1.64269 -5.65e-4,-0.6972 42.045851,-43.30426 93.436471,-94.68235 l 93.4375,-93.4147 -93.69635,-93.70464 c -51.533,-51.53755 -93.432923,-93.96807 -93.110941,-94.29005 0.321981,-0.32197 25.047841,-0.94823 54.946351,-1.39168 29.89851,-0.44345 56.23724,-1.19128 58.53049,-1.66183 L 180.2141,433.10655 152.68144,404.36577 125.14878,375.625 250.07439,375.30649 375,374.98799 l 0,-125.1085 0,-125.10849 29.6875,28.78912 29.6875,28.78913 0.87431,-28.98713 c 0.48086,-15.94291 1.02873,-43.19024 1.21745,-60.54962 0.18874,-17.359375 0.64045,-31.5625 1.00383,-31.5625 0.36336,0 42.84536,42.18751 94.40444,93.75002 l 93.74376,93.75002 94.06561,-94.05942 c 51.73607,-51.73267 94.08896,-93.217059 94.11753,-92.187516 0.0285,1.029544 0.36075,27.746896 0.73819,59.371896 0.37746,31.625 0.86844,57.68624 1.09109,57.91385 0.22265,0.22763 13.53109,-11.99554 29.5743,-27.16256 l 29.16949,-27.5764 0.31851,124.97505 0.3185,124.97506 125.11889,0 125.1189,0 -28.1441,29.0625 c -15.4793,15.98437 -28.0511,29.14489 -27.9374,29.24557 0.1138,0.10075 14.5505,0.55346 32.0817,1.00613 17.5313,0.45269 39.4688,1.05616 48.75,1.34107 9.2813,0.2849 21.7969,0.63908 27.8125,0.78705 6.7544,0.16617 10.9375,0.77963 10.9375,1.60402 0,0.73422 -41.9063,43.23838 -93.125,94.45368 l -93.125,93.11873 93.3838,93.3901 c 51.3612,51.36456 92.9393,93.83471 92.396,94.37812 -0.5434,0.54342 -16.5505,1.06727 -35.5714,1.1641 -19.0209,0.0969 -46.0159,0.32649 -59.9889,0.51032 l -25.4056,0.33423 12.9024,13.23969 c 7.0964,7.28183 20.2085,20.69281 29.1382,29.80219 l 16.2358,16.5625 -125.2892,0 -125.28909,0 -0.3185,124.97506 -0.31851,124.97504 -29.16949,-27.5764 c -16.04321,-15.167 -29.35172,-27.3902 -29.57447,-27.1625 -0.22275,0.2276 -0.69449,26.8513 -1.04832,59.1638 -0.35381,32.3125 -0.68591,59.0298 -0.73801,59.3719 -0.0521,0.342 -42.28221,-41.5628 -93.84472,-93.1219 l -93.75002,-93.7438 -94.24761,94.2415 -94.24761,94.2414 -0.7353,-10.4946 z M 751.875,676.25 c -31.6194,-31.625 -57.92113,-57.5 -58.44829,-57.5 -0.52717,0 -16.07617,9.85918 -34.55336,21.90929 l -33.59488,21.90928 -32.73063,-21.35858 C 574.546,629.46276 559.15521,619.5988 558.3461,619.29006 c -0.8091,-0.30874 -27.34381,25.31845 -58.966,56.9493 l -57.49491,57.51064 183.73981,0 183.73981,0 -57.48981,-57.5 z M 486.01231,571.69386 C 453.0208,550.13724 425.7965,532.5 425.51387,532.5 425.23124,532.5 425,577.3572 425,632.18266 l 0,99.68268 60.49845,-60.4888 60.49845,-60.48882 -59.98459,-39.19386 z m 338.68945,10.16433 -0.32676,-49.2056 -59.23331,38.63618 c -32.57833,21.2499 -59.55379,38.95667 -59.94548,39.34835 -0.3917,0.39169 26.2633,27.69226 59.23331,60.66789 l 59.94548,59.95574 0.32676,-50.09849 c 0.17971,-27.55416 0.17971,-72.241 0,-99.30407 z m -63.17855,-26.08088 59.64823,-38.90231 -97.36235,-0.3201 c -53.54929,-0.17605 -141.70349,-0.17605 -195.89821,0 l -98.53588,0.3201 97.97085,63.91104 97.97085,63.91105 38.27915,-25.00873 c 21.05354,-13.7548 65.12085,-42.51477 97.92736,-63.91105 z" id="path3348" style="fill:#d4d4d4"/><path d="m 437.33255,1178.7469 c -0.0921,-5.842 -0.27933,-15.1219 -0.41605,-20.6219 -0.13672,-5.5 -0.65546,-26.5937 -1.15274,-46.875 -0.49728,-20.2812 -1.21498,-38.4969 -1.59488,-40.4792 -0.66635,-3.477 -1.72279,-2.5728 -29.92981,25.615 L 375,1125.6051 375,1000.3025 375,875 l -125.14008,0 -125.14006,0 28.77206,-29.6875 c 20.61888,-21.27489 28.22629,-29.88605 26.84603,-30.38815 -1.87148,-0.68081 -31.8592,-1.07871 -88.77545,-1.17794 -21.375146,-0.0373 -27.8125,-0.40976 -27.8125,-1.60935 0,-0.85847 22.359375,-23.88832 49.6875,-51.17745 27.32812,-27.28911 69.09151,-69.04458 92.80754,-92.78993 L 249.36508,624.99632 155.8003,531.42531 62.235521,437.8543 93.930261,436.967 c 17.432109,-0.48801 41.257239,-0.89948 52.944739,-0.91436 11.6875,-0.0149 24.43013,-0.39845 28.31695,-0.85235 L 182.2589,434.375 153.48939,404.6875 124.71986,375 249.85992,375 375,375 l 0,-125.30253 0,-125.30252 29.32789,29.30798 c 16.13033,16.11937 29.74891,28.88693 30.2635,28.37236 0.77419,-0.7742 2.43332,-65.06285 2.81165,-108.947165 l 0.097,-11.246875 93.69947,93.69322 c 51.53472,51.53129 94.14409,93.27492 94.6875,92.76364 0.54342,-0.51127 42.72924,-42.65217 93.74627,-93.64645 51.01703,-50.99426 93.03021,-92.444876 93.36261,-92.112475 0.3324,0.332401 0.75569,25.030736 0.94063,54.885195 0.18493,29.85445 0.64051,56.37857 1.01238,58.9425 l 0.67614,4.66167 29.6875,-28.11771 L 875,124.83312 875,249.91656 875,375 l 125.3023,0 125.3023,0 -28.6826,28.703 c -15.7755,15.78664 -28.2914,29.09425 -27.8132,29.57245 0.4782,0.47821 6.0775,1.03856 12.4428,1.24525 20.8195,0.67599 79.9254,2.33027 99.6953,2.79031 l 8.1219,0.18899 -93.4344,93.4406 c -51.3889,51.39234 -93.4344,94.0003 -93.4344,94.68437 0,0.68408 41.7415,42.98808 92.7589,94.00889 51.0173,51.02081 92.4635,93.06044 92.1025,93.42138 -0.3609,0.36095 -23.6805,0.67978 -51.8213,0.70855 -28.1408,0.0288 -55.297,0.40113 -60.3472,0.8275 l -9.1821,0.77521 29.7973,29.81675 L 1125.6055,875 1000.3027,875 875,875 l 0,125.0834 0,125.0835 -29.6875,-28.1153 -29.6875,-28.1153 -0.70026,5.8444 c -0.38515,3.2143 -0.84014,29.7368 -1.01111,58.9387 -0.17097,29.202 -0.58217,53.3658 -0.91379,53.6974 -0.33163,0.3317 -42.6257,-41.4197 -93.98684,-92.7809 l -93.38388,-93.3839 -94.06456,94.0584 -94.06456,94.0584 -0.16745,-10.6219 z m 314.6801,-502.35923 -58.60239,-58.61233 -10.14262,6.54484 c -5.57845,3.59966 -20.89414,13.59162 -34.03486,22.20434 l -23.89222,15.65952 -32.35778,-21.14855 c -17.79678,-11.6317 -33.23912,-21.65027 -34.31632,-22.26347 -1.54168,-0.87761 -14.44362,11.37232 -60.62001,57.55654 L 439.38497,735 625,735 810.61503,735 752.01265,676.38767 Z M 503.4375,654.42707 c 23.54687,-23.36026 42.81184,-42.77218 42.81101,-43.13763 -0.003,-1.38872 -120.14603,-79.05859 -120.98837,-78.21643 -0.48683,0.48673 -1.06557,45.69754 -1.28609,100.46848 l -0.40095,99.58351 18.52595,-18.11236 c 10.18927,-9.96181 37.79157,-37.22532 61.33845,-60.58556 z m 322.5141,-72.38147 -0.3266,-50.64088 -60.83753,39.61014 -60.83752,39.61014 60.83752,60.94277 60.83753,60.94278 0.3266,-49.91204 c 0.17963,-27.45161 0.17963,-72.70042 0,-100.55291 z m -101.40437,-1.7331 99.14255,-64.6875 -99.44333,-0.32 c -54.69384,-0.17601 -143.97481,-0.17601 -198.40218,0 l -98.95883,0.32 98.74477,64.59102 c 54.30964,35.52507 98.97646,64.63444 99.25963,64.6875 0.28316,0.0531 45.12898,-29.0129 99.65738,-64.59102 z" id="path3346" style="fill:#9d9d9c"/><path d="m 438.27467,1181.5625 c -0.38229,-2.5781 -1.04132,-19.8616 -1.4645,-38.4078 -0.42318,-18.5461 -0.98458,-39.0774 -1.24757,-45.625 -0.26298,-6.5476 -0.49715,-16.3117 -0.52038,-21.6979 l -0.0422,-9.7933 -29.6875,28.8194 -29.6875,28.8195 -0.31854,-124.33269 -0.31854,-124.33264 -124.45731,-0.31853 -124.45732,-0.31854 28.75263,-29.98155 c 15.81395,-16.48986 28.60858,-30.12561 28.43252,-30.30168 -0.27085,-0.27085 -81.28496,-1.40162 -110.755315,-1.54589 L 63.13125,812.5 l 93.73547,-93.74172 93.73549,-93.74174 -93.60749,-93.63844 -93.60747,-93.63844 35.273611,-0.103 c 19.400489,-0.0566 35.696529,-0.36443 36.213409,-0.6839 0.5169,-0.31946 11.44414,-0.67316 24.28278,-0.78602 12.83862,-0.11288 23.33359,-0.56214 23.32216,-0.99843 -0.0112,-0.43629 -12.68831,-14.012 -28.17081,-30.16825 l -28.15003,-29.375 124.41478,-0.31854 124.41477,-0.31853 0.31854,-124.33264 0.31854,-124.33264 29.73955,28.86995 c 16.35676,15.87848 29.96545,28.64408 30.24154,28.36799 0.27607,-0.27609 0.90422,-27.67783 1.39586,-60.89276 l 0.8939,-60.390791 93.86769,93.861511 93.86769,93.86151 93.12188,-93.13736 93.12189,-93.137359 0.74124,5.949831 c 0.40767,3.272407 0.85332,29.832979 0.99032,59.023488 0.13702,29.19052 0.40185,53.22642 0.58854,53.41312 0.1867,0.18668 13.80355,-12.34634 30.25968,-27.85118 l 29.92022,-28.19062 0.31854,124.45897 0.31854,124.45898 124.34828,0.31853 124.34834,0.31854 -28.2599,29.11529 c -15.543,16.0134 -28.0202,29.355 -27.7272,29.648 0.5184,0.51834 11.0824,0.87169 77.2784,2.58484 17.5313,0.4537 33.2813,0.96732 35,1.14137 1.7188,0.17404 4.1747,0.38823 5.4577,0.47598 1.5691,0.10725 -28.2052,30.73235 -90.9662,93.56527 l -93.2988,93.40575 93.463,93.46925 93.4631,93.46919 -18.7469,0.11 c -51.7026,0.30336 -102.2738,1.12529 -102.8197,1.67111 -0.337,0.337 12.401,13.996 28.3067,30.35331 l 28.9194,29.74059 -124.3831,0.31854 -124.38312,0.31854 -0.31854,124.4619 L 874.375,1123.9359 845,1096.246 l -29.375,-27.69 -0.83627,4.7845 c -0.45995,2.6315 -1.0006,29.1126 -1.20143,58.847 -0.20084,29.7344 -0.66686,54.0625 -1.0356,54.0625 -0.36875,0 -42.43651,-41.7632 -93.48392,-92.8072 l -92.81348,-92.8072 -39.54247,39.3697 c -21.74837,21.6533 -63.65077,63.4166 -93.11644,92.8072 -29.46568,29.3906 -53.81059,53.4375 -54.0998,53.4375 -0.28922,0 -0.83863,-2.1094 -1.22091,-4.6875 z M 810,733.95645 c 0,-1.58892 -116.52474,-115.87915 -117.76188,-115.50364 -0.59398,0.1803 -15.76696,9.91189 -33.7177,21.62576 -17.95073,11.71388 -33.26441,21.05747 -34.0304,20.76353 -0.76598,-0.29392 -16.24145,-10.21669 -34.38991,-22.05056 L 557.1029,617.27541 498.2406,676.1377 439.37831,735 624.68915,735 C 726.61012,735 810,734.5304 810,733.95645 Z M 546.25,611.06653 c 0,-0.87166 -120.38509,-79.81653 -121.71429,-79.81653 -0.43213,0 -0.78571,45.70097 -0.78571,101.55771 l 0,101.55773 L 485,673.125 c 33.6875,-33.68224 61.25,-61.60855 61.25,-62.05847 z m 279.55822,-79.42498 c -0.25121,-0.2512 -27.83065,17.4016 -61.28765,39.22845 l -60.83091,39.68519 60.96768,60.97732 60.96766,60.97733 0.31999,-100.20578 c 0.17599,-55.11316 0.11437,-100.4113 -0.13677,-100.66251 z M 725.7005,580 l 98.60377,-64.375 -99.65213,-0.31999 c -54.80868,-0.17598 -144.37994,-0.17598 -199.04724,0 l -99.39511,0.31999 99.08261,64.68531 c 54.49542,35.57693 99.69499,64.54568 100.44346,64.375 0.74848,-0.17067 45.73257,-29.27906 99.96464,-64.68531 z" id="path3344" style="fill:#6b6b6a"/><path d="m 375,999.68151 0,-124.66943 -124.28216,-0.31854 -124.28216,-0.31854 27.71966,-28.86709 c 15.24581,-15.8769 32.68037,-34.29877 38.74346,-40.9375 L 203.92261,792.5 196.6488,792.38112 c -4.00059,-0.0654 -20.91441,-0.20597 -37.58628,-0.3125 -16.67186,-0.10649 -30.31248,-0.47653 -30.3125,-0.82223 -1e-5,-0.3457 37.12499,-37.75036 82.5,-83.12148 l 82.50003,-82.49292 -82.75868,-82.7657 C 165.4741,497.34515 128.5162,459.81708 128.8627,459.47056 c 0.34651,-0.34651 13.25979,-0.72441 28.69616,-0.8398 15.43638,-0.11537 32.10922,-0.4966 37.05075,-0.84713 l 8.98463,-0.63737 -10.85963,-11.89357 c -5.97279,-6.54146 -23.33346,-24.88376 -38.57927,-40.76066 L 126.43568,375.625 250.71784,375.30646 375,374.98793 l 0,-124.66944 0,-124.66945 24.0625,23.8256 c 13.23437,13.10407 31.72424,30.95916 41.08857,39.67795 l 17.02608,15.85236 0.88591,-11.3247 c 0.48726,-6.22859 0.89218,-23.75523 0.89983,-38.94809 l 0.0139,-27.62338 83.32763,83.32065 83.32761,83.32065 82.44262,-82.44973 c 45.34346,-45.34735 82.73202,-82.16035 83.08571,-81.80667 0.35367,0.35368 0.73763,12.56542 0.85323,27.1372 0.11563,14.57176 0.27234,30.8924 0.3483,36.26806 l 0.13814,9.77393 10.78797,-9.77393 c 5.93339,-5.37567 24.35527,-22.51718 40.9375,-38.09223 l 30.14953,-28.3183 0.31854,124.2558 0.31853,124.25579 124.66913,0 124.6691,0 -23.1883,23.4375 c -28.3236,28.62791 -55.5537,57.77566 -54.1063,57.91666 0.5881,0.0573 2.4756,0.28339 4.1943,0.50243 1.7188,0.21903 18.3125,0.79191 36.875,1.27306 18.5625,0.48115 34.007,1.12146 34.3212,1.42291 0.3141,0.30145 -36.6703,37.79265 -82.1876,83.31379 L 957.49995,625.63205 1040,708.12497 c 45.375,45.37112 82.5,82.77578 82.4999,83.12148 0,0.3457 -14.4844,0.71504 -32.1875,0.82074 -17.703,0.10575 -35.196,0.24632 -38.8733,0.3125 l -6.6858,0.12037 16.6169,17.8125 c 9.1393,9.79688 27.0486,28.35938 39.7985,41.25 l 23.1816,23.4375 -124.6691,0 -124.66913,0 -0.31853,124.25579 -0.31854,124.25585 -30.14953,-28.3183 c -16.58223,-15.5751 -35.00411,-32.7166 -40.9375,-38.0923 l -10.78797,-9.774 -0.10238,5.399 c -0.0564,2.9694 -0.25831,19.4614 -0.44887,36.6489 -0.19056,17.1875 -0.42574,31.8109 -0.5226,32.4965 -0.0969,0.6855 -37.44334,-36.0176 -82.99215,-81.5625 l -82.81603,-82.80905 -82.42051,82.42765 c -45.33129,45.3351 -82.80015,82.1929 -83.26415,81.9062 -0.46401,-0.2868 -0.99112,-9.6761 -1.17139,-20.8651 -0.18026,-11.189 -0.41663,-23.4374 -0.52528,-27.2187 -0.10863,-3.7812 -0.31884,-11.8665 -0.46708,-17.9672 l -0.26956,-11.0922 -17.1875,16.0046 c -9.45313,8.8025 -28.01563,26.7261 -41.25,39.8302 L 375,1124.351 375,999.68151 Z M 753.125,676.25 c -32.30701,-32.3125 -59.14866,-58.75 -59.64811,-58.75 -0.49945,0 -16.05561,9.86979 -34.56928,21.93287 l -33.66117,21.93287 -33.95257,-22.12272 -33.95255,-22.12272 -57.71851,57.37735 C 467.87762,706.05519 441.44787,732.57812 440.89004,733.4375 440.08023,734.68504 477.36709,735 625.8704,735 L 811.86503,735 753.125,676.25 Z M 541.49762,606.82699 C 521.17691,593.20327 427.44575,532.40072 425.77814,531.7608 423.91752,531.04681 423.75,539.38246 423.75,632.67403 l 0,101.6915 61.81013,-61.80067 61.81012,-61.80066 -5.87263,-3.93721 z M 826.25,631.875 c 0,-55.34375 -0.34136,-100.625 -0.75859,-100.625 -0.75916,0 -115.15139,74.43133 -119.86641,77.99319 -2.38875,1.80453 0.19752,4.58895 58.12016,62.5727 33.3411,33.37626 61.04423,60.68411 61.5625,60.68411 0.51829,0 0.94234,-45.28125 0.94234,-100.625 z M 724.375,581.3126 c 52.9375,-34.54746 97.07366,-63.60085 98.08036,-64.56309 C 824.02435,515.24982 795.83711,515 625.05952,515 c -109.57439,0 -198.81153,0.42187 -198.30473,0.9375 0.5068,0.51562 44.89742,29.73892 98.64583,64.94068 62.53434,40.95596 98.62462,63.86721 100.22438,63.62558 1.375,-0.20767 45.8125,-28.6437 98.75,-63.19116 z" id="path3342" style="fill:#60605f"/><path d="m 459.98479,1115.6215 c -0.025,-10.2985 -1.15655,-44.0937 -1.94118,-57.9791 l -0.73361,-12.9826 53.53757,-53.89239 c 29.44567,-29.64082 67.26892,-67.81502 84.05169,-84.83156 16.78277,-17.01653 30.59999,-30.79778 30.70497,-30.625 0.105,0.17279 25.68786,27.49969 56.8509,60.72646 31.16302,33.22679 68.24976,71.39329 82.41496,84.81439 14.1652,13.4211 26.06501,25.0481 26.44403,25.8377 0.37902,0.7896 0.37902,17.8921 0,38.0055 l -0.68912,36.5699 -82.49647,-82.5074 -82.49648,-82.50745 -82.81603,82.80905 -82.81602,82.809 -0.0152,-6.2465 z M 1048.75,791.50667 c -5.5976,-0.38418 -5.875,-0.63429 -56.875,-51.27851 -28.1875,-27.99085 -65.93998,-65.36799 -83.89439,-83.0603 L 875.33624,625 907.98061,592.83234 c 17.95441,-17.69222 56.02419,-55.40684 84.5995,-83.8103 l 51.95509,-51.64264 12.4199,0.7289 c 10.201,0.59869 40.1407,1.50001 60.5414,1.82257 4.2308,0.0669 1.7288,2.71198 -77.8125,82.26015 -45.20122,45.20507 -82.184,82.48082 -82.184,82.835 0,0.35418 36.84375,37.47177 81.875,82.48352 45.0313,45.01175 81.875,82.22081 81.875,82.6868 0,0.46599 -14.6046,0.84791 -32.4548,0.84872 -17.8501,8.2e-4 -32.8969,0.19188 -33.4375,0.42458 -0.5405,0.2327 -3.5139,0.24936 -6.6077,0.037 z m -912.28715,-7.47812 c 3.66419,-3.78229 40.55278,-40.74809 81.97465,-82.14622 41.42188,-41.39815 75.3125,-75.77132 75.3125,-76.38482 0,-0.6135 -36.98277,-38.10142 -82.18395,-83.30649 L 129.3821,460 l 14.99645,-0.15363 c 8.24805,-0.0845 25.37816,-0.34956 38.06692,-0.58905 l 23.07048,-0.43543 31.53885,32.15156 c 17.34635,17.68335 55.43305,54.9328 84.63709,82.77655 29.20403,27.84375 53.09825,50.90625 53.09825,51.25 0,0.34375 -23.89422,23.40625 -53.09825,51.25 -29.20404,27.84375 -67.30532,65.10812 -84.6695,82.80971 l -31.57125,32.18473 -37.82522,-0.16952 -37.82522,-0.16951 6.66215,-6.87686 z M 622.79961,373.07976 c -0.59104,-1.05612 -37.74398,-38.97821 -82.56211,-84.27131 l -81.4875,-82.35109 0,-14.27767 c 0,-7.85272 0.372,-25.38517 0.82668,-38.961 l 0.82666,-24.68334 82.84355,82.83654 82.84356,82.83652 82.09594,-82.17137 c 45.15277,-45.19425 82.2761,-81.99122 82.49629,-81.77103 0.22018,0.22018 0.54107,16.82953 0.71307,36.90964 l 0.31275,36.50931 -26.79175,25.4411 c -14.75152,14.00786 -52.07054,52.45635 -83.04175,85.55506 -30.9375,33.06268 -56.64392,60.16007 -57.12539,60.21642 -0.48146,0.0564 -1.35896,-0.76164 -1.95,-1.81778 z" id="path3340" style="fill:#565655"/></g></svg>