<?xml version="1.0" ?><svg height="1250" id="svg3336" version="1.1" viewBox="0 0 1250 1250" width="1250" xmlns="http://www.w3.org/2000/svg" xmlns:cc="http://creativecommons.org/ns#" xmlns:dc="http://purl.org/dc/elements/1.1/" xmlns:inkscape="http://www.inkscape.org/namespaces/inkscape" xmlns:rdf="http://www.w3.org/1999/02/22-rdf-syntax-ns#" xmlns:sodipodi="http://sodipodi.sourceforge.net/DTD/sodipodi-0.dtd" xmlns:svg="http://www.w3.org/2000/svg"><defs id="defs3340"/><g id="g3834"><path d="m 439.17974,1179.7766 c -0.0454,-6.1858 -0.26887,-16.5907 -0.49651,-23.1219 -0.22763,-6.5313 -0.79858,-27.9063 -1.26876,-47.5 -0.47019,-19.5938 -1.1521,-36.684 -1.51535,-37.9783 -0.526,-1.8742 -6.61262,3.5948 -29.8986,26.865 l -29.23815,29.2183 0,-125.3025 0,-125.30254 -125.14008,0 -125.14006,0 28.76172,-29.6875 c 18.4796,-19.07441 28.24902,-30.02741 27.32757,-30.63831 -0.78879,-0.52295 -7.9029,-0.86405 -15.80915,-0.758 -36.51255,0.48975 -101.250003,-0.45022 -101.250003,-1.4701 0,-0.61812 41.625003,-42.80409 92.500003,-93.74663 50.875,-50.94254 92.5,-93.00427 92.5,-93.47052 0,-0.46625 -41.9606,-42.81113 -93.24578,-94.09973 l -93.245775,-93.25199 31.683276,-0.9136 c 17.425799,-0.50247 41.245779,-0.89622 52.933279,-0.875 11.6875,0.0212 24.43012,-0.35565 28.31695,-0.83751 l 7.06695,-0.87611 -28.76952,-29.6875 -28.76952,-29.6875 125.14006,0 125.14008,0 0,-125.30274 0,-125.30273 29.80881,29.78941 29.80882,29.78941 0.80729,-8.54918 c 0.44401,-4.70205 0.88911,-22.89292 0.98911,-40.42417 0.1,-17.53125 0.52588,-41.019958 0.94639,-52.197127 l 0.76458,-20.322127 93.57437,93.587114 93.57436,93.5871 93.6561,-93.74285 c 51.51085,-51.55856 93.88437,-93.514572 94.16337,-93.23557 0.27901,0.279 0.64101,25.174406 0.80445,55.32312 0.16345,30.14873 0.61897,56.67246 1.01226,58.94166 l 0.71509,4.12582 29.6875,-28.11702 29.6875,-28.117 0,125.08344 0,125.08344 125.30233,0 125.3023,0 -28.6827,28.703 c -15.7754,15.78664 -28.2646,29.12102 -27.7536,29.63196 0.5109,0.51094 6.3914,1.07561 13.0678,1.25483 6.6764,0.17921 22.8264,0.6287 35.8889,0.99886 13.0625,0.37015 33.8348,0.95831 46.1606,1.30701 12.3259,0.3487 22.708,0.9313 23.0714,1.29468 0.3634,0.36337 -41.0808,42.40498 -92.0982,93.4258 -51.0174,51.02081 -92.7588,93.32763 -92.7588,94.01515 0,0.68752 41.625,42.8722 92.5,93.74371 50.875,50.87151 92.5,92.90346 92.5,93.40434 0,0.82466 -54.3412,1.43453 -87.851,0.98595 -7.4117,-0.0992 -18.0171,0.21575 -23.5676,0.69991 l -10.0916,0.88031 29.8078,29.82724 29.8078,29.82725 -125.3027,0 -125.30273,0 0,125.08344 0,125.0834 -29.6875,-28.1153 -29.6875,-28.1152 -0.74348,5.8443 c -0.40891,3.2144 -0.85034,29.7233 -0.98095,58.9086 -0.13061,29.1854 -0.52237,53.3492 -0.87059,53.6974 -0.34821,0.3482 -42.65585,-41.3896 -94.01698,-92.7507 l -93.38388,-93.3839 -94.06456,94.0584 -94.06456,94.0583 -0.0826,-11.2468 z m 91.95763,-340.36379 32.5,-18.10793 13.75,2.68627 c 20.621,4.0286 30.78037,5.0824 49.40778,5.12491 96.34925,0.21994 180.0802,-57.37141 208.7482,-143.58 19.549,-58.78651 9.62939,-122.07166 -27.35296,-174.5064 -9.11252,-12.92003 -34.18542,-37.96691 -47.34857,-47.29943 -39.62315,-28.09237 -85.08727,-42.43733 -134.07945,-42.30512 -48.05708,0.1297 -93.10582,14.27589 -131.25,41.21509 -14.49724,10.23862 -39.36955,34.83716 -48.92803,48.38946 -36.98235,52.43474 -46.90196,115.71989 -27.35296,174.5064 11.42199,34.34749 31.9798,65.08806 59.48052,88.94261 l 11.80047,10.23591 0,38.50214 0,38.50214 4.0625,-2.09906 c 2.23437,-1.15449 18.6875,-10.24763 36.5625,-20.20699 z m -43.125,-145.96124 c 2.38802,-3.00529 100.5699,-107.61606 109.6191,-116.79691 l 6.77641,-6.875 28.36475,29.19335 28.36474,29.19336 52.26115,-29.01554 c 28.74362,-15.95855 52.56232,-28.71436 52.93042,-28.34626 0.68326,0.68326 -114.24981,123.30665 -115.66394,123.40316 -0.4277,0.0293 -13.44386,-12.96722 -28.92481,-28.88091 l -28.14717,-28.93397 -7.47783,4.31618 c -10.07459,5.81504 -97.0806,53.9355 -98.69699,54.5864 -0.70446,0.28368 -0.43708,-0.54606 0.59417,-1.84386 z" id="path3840" style="fill:#1e8ef7"/><path d="m 376.76237,1001.196 0,-124.52927 -124.30014,-0.31853 -124.30015,-0.31854 25.86265,-26.94163 c 14.22445,-14.8179 31.61409,-33.17691 38.64362,-40.7978 11.63914,-12.61826 12.51879,-13.9063 9.84612,-14.41721 -1.61419,-0.30857 -18.03047,-0.67689 -36.4806,-0.81847 -18.45015,-0.14159 -33.82542,-0.53713 -34.16725,-0.87898 -0.34185,-0.34184 36.47922,-37.72596 81.82461,-83.07582 l 82.44614,-82.45429 -82.14293,-82.1829 c -45.17861,-45.2006 -82.42505,-82.49183 -82.76984,-82.8694 -0.3448,-0.37759 6.24452,-0.69024 14.64293,-0.6948 22.98206,-0.0125 59.64484,-0.9148 59.64484,-1.46795 0,-0.8284 -24.37957,-26.9701 -51.48764,-55.20913 l -25.86265,-26.94162 124.30015,-0.31854 124.30014,-0.31854 0,-124.54415 0,-124.54413 24.1164,23.61267 c 13.26401,12.98698 32.10776,31.1302 41.875,40.31828 l 17.7586,16.7056 0.15707,-21.0806 c 0.0864,-11.59433 0.50826,-29.10113 0.9375,-38.904 l 0.78043,-17.82343 82.49647,82.51095 82.49648,82.51094 82.81602,-82.809 82.81603,-82.809 0.27472,19.37147 c 0.1511,10.65432 0.16311,21.62148 0.0267,24.37148 -0.13642,2.75 0.0746,10.75445 0.46886,17.78765 l 0.7169,12.78766 11.31179,-10.28766 c 6.22149,-5.6582 24.58999,-22.77839 40.8189,-38.04484 l 29.50713,-27.7572 0.31853,124.3197 0.31854,124.31969 124.55651,0 124.5565,0 -21.75,22.2251 c -11.9626,12.22381 -29.8305,30.78631 -39.7066,41.25 l -17.9565,19.0249 7.9565,0.19041 c 4.376,0.10475 12.4565,0.34766 17.9565,0.53985 5.5,0.19219 19.1406,0.51928 30.3125,0.72686 11.1718,0.20759 20.3125,0.80384 20.3125,1.325 0,0.52117 -36.9228,37.85592 -82.0506,82.96612 l -82.05058,82.01853 82.30918,82.3163 c 45.2701,45.27397 82.0305,82.59508 81.6898,82.9358 -0.3408,0.34072 -17.1915,0.7473 -37.4462,0.90352 -20.2546,0.15621 -37.2695,0.50876 -37.8108,0.78342 -1.0804,0.54824 22.6713,26.01768 56.4842,60.56909 l 21.75,22.2251 -124.5565,0 -124.55646,0 -0.31854,124.31964 -0.31853,124.3197 -29.50713,-27.7572 c -16.22891,-15.2664 -34.60095,-32.3898 -40.82675,-38.052 l -11.31964,-10.2949 -0.84125,10.2949 c -0.4627,5.6622 -0.6587,14.7949 -0.43557,20.2949 0.22314,5.5 0.27061,17.5921 0.1055,26.8714 l -0.30016,16.8715 -82.19103,-82.184 c -45.20506,-45.20117 -82.61569,-82.18394 -83.13472,-82.18394 -0.51903,0 -37.83739,36.88317 -82.92968,81.96264 -45.0923,45.0794 -82.26221,81.6864 -82.59981,81.3488 -0.3376,-0.3376 -0.8298,-10.0802 -1.09376,-21.6501 -0.26398,-11.57 -0.83532,-28.4987 -1.26963,-37.6194 l -0.78969,-16.583 -16.35911,15.333 c -8.99751,8.4332 -27.50189,26.2333 -41.12084,39.5559 l -24.76173,24.2228 0,-124.5293 z m 151.04661,-158.92752 37.1744,-20.63616 6.20199,1.82569 c 22.21213,6.53862 66.87001,8.47096 93.077,4.02741 72.27245,-12.2542 132.35447,-55.76039 162.3689,-117.57344 7.81763,-16.1 12.02102,-28.55323 16.03623,-47.5101 2.77195,-13.08712 3.1979,-18.1502 3.16509,-37.62222 -0.0331,-19.65149 -0.46467,-24.47813 -3.40884,-38.125 -16.75291,-77.65368 -78.06835,-139.47844 -157.93262,-159.24449 -23.40623,-5.79295 -28.63185,-6.37646 -57.10376,-6.37646 -28.47192,0 -33.69754,0.58351 -57.10377,6.37646 -79.83683,19.75926 -141.18546,81.61748 -157.93262,159.24449 -2.94416,13.64687 -3.37573,18.47351 -3.40884,38.125 -0.0329,19.47202 0.39314,24.5351 3.16509,37.62222 4.01521,18.95687 8.2186,31.4101 16.03624,47.5101 11.74032,24.17855 29.21505,47.00082 49.52915,64.68587 l 11.58975,10.0898 0,39.1085 c 0,21.50968 0.30875,39.10851 0.6861,39.10851 0.37736,0 17.41458,-9.28628 37.86051,-20.63618 z m 18.07576,-209.56716 58.45999,-62.04699 28.20764,29.22788 c 25.95685,26.89567 28.42217,29.11516 30.89632,27.81532 5.57588,-2.92942 95.37936,-52.70591 99.56368,-55.1864 2.78947,-1.65362 -2.6659,4.8561 -15.05318,17.9625 -10.68549,11.30582 -37.00077,39.22262 -58.47841,62.03735 l -39.05024,41.48132 -15.88456,-16.48132 c -8.73651,-9.06473 -21.51499,-22.23118 -28.39659,-29.25881 l -12.51202,-12.77747 -10.625,6.00232 c -5.84375,3.30129 -27.75954,15.4684 -48.70174,27.03805 -20.94221,11.56964 -40.0588,22.20515 -42.48131,23.63448 -2.44008,1.43967 21.66923,-25.07489 54.05542,-59.44823 z" id="path3838" style="fill:#0082fd"/><path d="m 461.61765,1119.4672 c -0.0796,-1.8907 -0.31306,-10.4688 -0.51882,-19.0625 -0.20575,-8.5938 -0.73428,-24.3438 -1.1745,-35 l -0.80039,-19.375 25.2012,-25 c 13.86066,-13.75 51.36558,-51.57817 83.34426,-84.06254 31.97868,-32.48438 58.6011,-59.0625 59.16093,-59.0625 0.55982,0 26.38891,26.9961 57.39796,59.99134 31.00906,32.99523 68.33224,71.3254 82.94041,85.1782 l 26.5603,25.1869 -0.22476,21.3843 c -0.12362,11.7613 -0.28486,28.6952 -0.35831,37.6307 l -0.13356,16.2465 -82.19103,-82.184 c -45.20506,-45.20117 -82.61569,-82.18394 -83.13472,-82.18394 -0.51903,0 -37.79795,36.84375 -82.84204,81.87504 -45.04408,45.0312 -82.1647,81.875 -82.49028,81.875 -0.32556,0 -0.65706,-1.5469 -0.73665,-3.4375 z M 151.44987,793.18542 c -10.82813,-0.18934 -19.6875,-0.75025 -19.6875,-1.24647 0,-0.49624 36.98437,-37.89028 82.1875,-83.09787 l 82.1875,-82.19562 -82.14293,-82.1829 c -45.17861,-45.2006 -82.39629,-82.46415 -82.70592,-82.8079 -0.30965,-0.34375 12.74841,-0.79264 29.01792,-0.99751 16.26951,-0.20489 33.33388,-0.52619 37.9208,-0.714 l 8.33989,-0.34149 24.16011,25.00682 c 13.28808,13.75375 51.30075,51.10288 84.47263,82.99805 33.17187,31.89518 60.3125,58.47122 60.3125,59.05787 0,0.58665 -26.62054,26.64708 -59.15675,57.91208 -32.5362,31.265 -70.52753,68.5697 -84.42515,82.89933 l -25.2684,26.05385 -17.76235,0 c -9.76929,0 -26.62173,-0.15491 -37.44985,-0.34424 z m 871.24993,-22.5415 c -12.5468,-12.63134 -50.37493,-50.16585 -84.06243,-83.41001 l -61.25,-60.44394 31.25,-30.97764 c 17.1875,-17.0377 55.17902,-54.7664 84.42561,-83.84155 l 53.17562,-52.86392 26.8244,0.82345 c 14.7534,0.45289 32.0275,0.85006 38.3869,0.88261 6.3593,0.0325 11.5625,0.51193 11.5625,1.0653 0,0.55338 -36.9228,37.91448 -82.0506,83.02468 l -82.05058,82.01853 82.30918,82.3163 c 45.2701,45.27397 82.038,82.58758 81.7064,82.91914 -0.3315,0.33155 -17.8854,0.79414 -39.0087,1.02798 l -38.4058,0.42513 -22.8125,-22.96606 z M 568.28918,316.96716 c -31.64799,-32.14063 -68.84468,-69.66898 -82.6593,-83.39635 l -25.11751,-24.95884 0.15707,-21.29116 c 0.0864,-11.71013 0.50826,-29.31169 0.9375,-39.11456 l 0.78043,-17.82343 82.49647,82.51095 82.49648,82.51094 82.81602,-82.809 82.81603,-82.809 0.10562,18.74647 c 0.0581,10.31057 0.27823,27.19393 0.48914,37.51859 l 0.38349,18.7721 -26.20929,24.81839 c -14.41508,13.6501 -51.79654,52.03077 -83.06989,85.29039 -31.27336,33.2596 -57.31511,60.47201 -57.87056,60.47201 -0.55545,0 -26.90373,-26.29688 -58.5517,-58.4375 z" id="path3836" style="fill:#016fd8"/></g></svg>