<?xml version="1.0" ?><svg height="1250" id="svg2" version="1.1" viewBox="0 0 1250 1250" width="1250" xmlns="http://www.w3.org/2000/svg" xmlns:cc="http://creativecommons.org/ns#" xmlns:dc="http://purl.org/dc/elements/1.1/" xmlns:inkscape="http://www.inkscape.org/namespaces/inkscape" xmlns:rdf="http://www.w3.org/1999/02/22-rdf-syntax-ns#" xmlns:sodipodi="http://sodipodi.sourceforge.net/DTD/sodipodi-0.dtd" xmlns:svg="http://www.w3.org/2000/svg"><defs id="defs6"/><g id="g3338"><path d="m 437.40984,1178.1219 c -0.0496,-6.1858 -0.25639,-16.0281 -0.45955,-21.8719 -0.20317,-5.8437 -0.80427,-27.6564 -1.3358,-48.4725 -0.5631,-22.0527 -1.47362,-38.1609 -2.18177,-38.5986 -0.66843,-0.4131 -14.08925,12.1137 -29.82402,27.8373 L 375,1125.6046 375,1000.3083 375,875.01201 250.13004,874.69351 125.26006,874.375 153.73644,845 c 18.16589,-18.73915 27.96262,-29.71937 27.05746,-30.32614 -0.78039,-0.52312 -7.88765,-0.8576 -15.7939,-0.74326 -34.9452,0.50533 -101.25,-0.45682 -101.25,-1.46924 0,-0.6097 41.625,-42.81394 92.5,-93.78719 50.875,-50.97326 92.5,-93.04187 92.5,-93.48581 0,-0.44394 -41.9606,-42.77055 -93.24578,-94.05915 l -93.245772,-93.25199 31.683276,-0.9136 c 17.425806,-0.50247 41.245776,-0.89622 52.933276,-0.875 11.6875,0.0213 24.41981,-0.35565 28.29402,-0.83751 L 182.21304,434.375 153.73655,405 125.26006,375.625 250.13004,375.30649 375,374.98799 l 0,-125.27124 0,-125.27123 29.61919,29.33974 29.61918,29.33974 0.8963,-6.25 c 0.49298,-3.4375 1.0234,-21.4375 1.17874,-40 0.15535,-18.5625 0.6265,-42.894958 1.04701,-54.072126 l 0.76458,-20.322128 93.5672,93.579944 93.56719,93.57992 93.64133,-93.75761 c 51.50274,-51.56668 93.87948,-93.519462 94.17056,-93.228396 0.29106,0.291065 0.66293,25.196342 0.82637,55.345056 0.16345,30.14873 0.61898,56.6597 1.01226,58.91328 l 0.71509,4.09742 29.375,-27.81782 29.375,-27.81783 0.31851,124.81265 0.3185,124.81264 125.24649,0 125.2466,0 -28.6901,28.93514 c -32.4382,32.71538 -31.6386,30.79132 -12.8157,30.83701 5.0192,0.0125 22.0632,0.4267 37.8757,0.92112 27.9109,0.87274 44.5355,1.33025 59.9969,1.65114 l 7.4969,0.15559 -93.4344,93.4406 c -51.3889,51.39234 -93.4344,94.00314 -93.4344,94.69067 0,0.68753 41.625,42.87222 92.5,93.74373 50.875,50.87151 92.5,92.90346 92.5,93.40434 0,0.79067 -30.0196,1.16187 -91.25,1.12833 -9.2812,-0.005 -19.6875,0.39489 -23.125,0.88885 l -6.25,0.89809 29.2944,29.6527 29.2944,29.65269 -125.2259,0 -125.22589,0 -0.3185,124.81264 -0.31851,124.81266 -29.375,-27.8155 -29.375,-27.8156 -0.74348,5.8154 c -0.40891,3.1985 -0.85033,29.6943 -0.98095,58.8797 -0.13061,29.1853 -0.52237,53.3492 -0.87058,53.6974 -0.34822,0.3482 -42.65585,-41.3896 -94.01699,-92.7508 l -93.38388,-93.3839 -94.06456,94.0584 -94.06456,94.0584 -0.0901,-11.2469 z M 583.125,807.54351 c 79.63025,-12.93572 143.53335,-55.8914 184.50829,-124.02649 24.1286,-40.12221 37.34367,-84.95801 39.45973,-133.87812 l 0.79964,-18.48609 7.76538,-6.1791 c 9.07106,-7.21806 26.9104,-25.75196 32.85713,-34.13638 2.27709,-3.21053 3.84479,-5.83733 3.48378,-5.83733 -0.36103,0 -3.3491,1.05866 -6.64018,2.35259 C 832.88366,492.25732 802.5,499.5379 802.5,497.62246 c 0,-0.46041 3.85421,-3.9858 8.56493,-7.8342 4.71069,-3.8484 11.27487,-10.5189 14.58703,-14.82331 5.80384,-7.5425 14.33624,-22.85281 14.34419,-25.73879 0.003,-0.76936 -4.71665,0.97028 -10.48614,3.86585 -11.20702,5.62454 -34.22076,13.73474 -42.91554,15.12373 -5.03431,0.80422 -5.59413,0.55948 -12.0062,-5.24859 -9.02361,-8.17365 -18.58054,-13.71145 -31.76176,-18.40449 -10.41966,-3.70982 -11.8621,-3.89841 -29.70151,-3.8832 -17.24831,0.0147 -19.5509,0.29425 -28.75,3.49046 -14.73161,5.11849 -26.15674,12.38349 -37.50374,23.84787 -11.39465,11.51251 -17.94423,21.94866 -22.81728,36.35721 -3.12138,9.22921 -3.38387,11.56567 -3.40552,30.31274 -0.014,12.1233 -0.5071,20.31265 -1.22305,20.3125 -0.65977,-1.3e-4 -8.53477,-0.89453 -17.5,-1.98755 -49.08186,-5.98397 -96.5181,-26.1623 -135.78032,-57.75797 -5.09855,-4.10298 -15.87609,-14.26423 -23.9501,-22.58057 l -14.68,-15.12061 -3.09741,6.11243 c -1.70357,3.36184 -4.19824,10.08493 -5.5437,14.94022 -9.48453,34.22606 1.33953,70.91186 27.94121,94.70062 4.50094,4.025 8.18384,7.63951 8.18421,8.03224 0.002,2.42239 -23.6016,-2.97898 -35.3118,-8.0805 l -4.6875,-2.0421 0,6.06682 c 0,12.69168 7.46174,34.31843 16.24549,47.08518 10.37089,15.07355 28.1142,28.53297 45.59342,34.58547 5.51985,1.91135 9.9149,3.913 9.76679,4.44813 -0.54195,1.95802 -10.08005,2.98274 -24.27049,2.60746 l -14.53979,-0.38451 1.08397,2.84567 c 12.34093,32.39816 41.24732,55.47269 75.41048,60.19648 5.45319,0.75401 10.10898,1.56504 10.34622,1.80226 0.89181,0.89183 -20.70619,14.52523 -31.78383,20.06304 -12.73036,6.36404 -32.18546,13.19045 -46.60226,16.35182 -5.92904,1.30016 -18.24258,2.31057 -33.49992,2.74892 l -24.12494,0.69311 4.12494,2.51129 c 2.26871,1.38121 10.03117,5.45486 17.24992,9.05256 33.94569,16.91793 68.25075,26.15881 103.75,27.94754 17.87401,0.90063 46.52241,-0.2063 59.375,-2.29418 z" id="path3344" style="fill:#5db2e4"/><path d="M 375,999.52373 375,875 l -124.51579,0 -124.51577,0 13.91785,-14.6875 c 67.63963,-71.38009 63.8676,-67.1349 60.29923,-67.86284 -1.82078,-0.37143 -18.19113,-0.81455 -36.37856,-0.98471 -18.18742,-0.17015 -33.35069,-0.59201 -33.69615,-0.93746 -0.34545,-0.34546 36.33628,-37.59567 81.51495,-82.77823 l 82.14304,-82.15011 -82.5094,-82.47422 c -45.38017,-45.36082 -82.50898,-82.76125 -82.50845,-83.11207 5.2e-4,-0.35082 13.64115,-0.81846 30.3125,-1.0392 36.45571,-0.4827 42.62137,-0.72201 43.43655,-1.68596 0.5499,-0.65027 -11.11712,-13.24361 -63.57219,-68.61956 L 125.98064,375 l 124.50363,0 124.50366,0 0.31853,-124.16226 0.31854,-124.16228 41.25,39.7863 41.25,39.7863 0.88983,-32.81152 c 0.4894,-18.04635 1.0519,-35.49002 1.25,-38.76372 l 0.36017,-5.95217 82.49648,82.5147 82.49647,82.5147 82.81603,-82.809 82.81602,-82.809 0.28283,18.74647 c 0.15555,10.31057 0.17501,21.27773 0.0433,24.37148 -0.13178,3.09375 0.0761,11.3874 0.46197,18.43034 l 0.70156,12.80533 13.23674,-12.18033 c 7.28021,-6.69919 25.64818,-23.87225 40.8177,-38.16237 l 27.58095,-25.98203 0.31854,124.4135 0.31853,124.41348 124.18353,0.31854 124.1835,0.31854 -39.1319,40.57853 c -21.5225,22.31818 -38.9866,40.72377 -38.809,40.90128 0.3741,0.37418 38.1119,1.60682 60.4993,1.97612 8.4219,0.13892 15.3125,0.69798 15.3125,1.24237 0,0.54439 -36.9,37.9021 -82.0001,83.01714 l -82.00005,82.02733 82.25875,82.2658 c 45.2423,45.2462 81.9759,82.54863 81.6302,82.8943 -0.3457,0.34568 -17.3859,0.78224 -37.8671,0.97013 -20.4812,0.18789 -37.436,0.66111 -37.6774,1.05161 -0.2413,0.39049 17.1616,18.96095 38.673,41.26769 l 39.1118,40.5577 -124.1835,0.31854 -124.18353,0.31853 -0.31853,124.41349 -0.31854,124.41354 -27.58096,-25.9821 c -15.16953,-14.2901 -33.52656,-31.453 -40.79343,-38.1398 l -13.21245,-12.1578 -0.66766,9.0328 c -0.3672,4.968 -0.71804,21.3657 -0.77961,36.4392 -0.0616,15.0735 -0.41113,27.7055 -0.77674,28.0711 -0.36562,0.3656 -37.69691,-36.3642 -82.95843,-81.6218 l -82.29365,-82.28655 -82.10113,82.16615 c -45.15563,45.1914 -82.40013,81.8672 -82.76557,81.5017 -0.36543,-0.3654 -0.88041,-10.1307 -1.14437,-21.7007 -0.26398,-11.57 -0.83446,-28.4828 -1.26775,-37.5842 l -0.78779,-16.5478 -10.99395,10.2978 c -6.04666,5.6639 -24.5519,23.4429 -41.12272,39.5091 L 375,1124.0474 375,999.52373 Z M 568.125,809.95541 c 113.69109,-10.68692 203.56274,-89.86026 232.53054,-204.85011 3.75747,-14.91561 6.83236,-40.436 6.8654,-56.9803 l 0.0324,-16.25 4.80039,-3.39426 c 8.63504,-6.10568 23.62326,-20.91609 32.75229,-32.36373 4.9236,-6.1741 8.64082,-11.5368 8.2605,-11.91712 -0.38032,-0.38033 -4.50497,0.83413 -9.16588,2.6988 -8.15636,3.26306 -26.91569,8.24687 -37.32567,9.91637 l -5,0.80186 3.201,-2.24596 c 13.5004,-9.47246 23.92652,-21.56944 31.38336,-36.41271 2.63485,-5.24483 4.79064,-10.25544 4.79064,-11.1347 0,-1.00253 -4.07847,0.44449 -10.9375,3.88057 -12.43067,6.22723 -24.98418,10.94325 -38.67544,14.52933 l -9.4173,2.46662 -7.67238,-6.8511 c -8.80531,-7.8628 -26.36713,-17.13426 -38.29732,-20.21843 -12.33833,-3.18969 -35.40379,-2.87843 -47.88665,0.64621 -42.95783,12.12949 -71.86763,52.14818 -69.24147,95.84825 0.37183,6.1875 1.06296,12.23438 1.53582,13.4375 1.10156,2.80269 -2.5818,2.86145 -21.65746,0.3455 -62.7068,-8.2706 -121.96309,-40.07826 -165.05143,-88.59652 l -6.49504,-7.31352 -4.43987,9.60954 c -5.68016,12.29398 -7.97049,23.25424 -7.97049,38.1425 0,15.78516 2.50754,26.80854 9.21824,40.5242 6.36554,13.0102 14.65024,23.79193 24.36146,31.70409 l 6.74811,5.49799 -7.37311,-0.89914 C 439.4242,579.53156 426.38077,575.73868 419.7373,572.35918 417.18656,571.06163 414.79594,570 414.4248,570 c -1.24394,0 -0.69169,8.38479 1.21385,18.43001 6.34855,33.46684 29.37045,60.15807 61.86135,71.72108 l 9.375,3.33642 -5,1.06874 c -2.75,0.58781 -11.60938,1.02998 -19.6875,0.9826 -9.80149,-0.0575 -14.6875,0.36619 -14.6875,1.2736 0,0.74786 2.13505,5.6097 4.74456,10.80409 14.46541,28.79427 39.96499,47.10907 71.95313,51.67957 l 9.90658,1.41545 -10.48963,6.97632 c -21.19908,14.09878 -43.81617,23.36879 -69.86464,28.63524 -11.63341,2.35204 -18.48739,2.91708 -35.9375,2.96266 -11.85938,0.031 -21.5625,0.17255 -21.5625,0.31458 0,1.12883 27.90861,15.64502 39.62517,20.61035 40.91969,17.34128 86.08418,24.08427 132.24983,19.7447 z" id="path3342" style="fill:#1ca0f0"/><path d="m 459.85529,1117.8125 c -0.0796,-1.8906 -0.31306,-10.4687 -0.51883,-19.0625 -0.20575,-8.5937 -0.73427,-24.3437 -1.1745,-35 l -0.80038,-19.375 25.2012,-25 c 13.86066,-13.75 51.36557,-51.57813 83.34426,-84.0625 31.97867,-32.48438 58.6011,-59.0625 59.16092,-59.0625 0.55983,0 26.38891,26.9961 57.39797,59.99134 31.00906,32.99524 68.36714,71.35856 83.01797,85.25176 l 26.63786,25.2604 -0.48706,36.8828 c -0.26787,20.2855 -0.76791,37.1636 -1.11119,37.5069 -0.34327,0.3432 -37.65627,-36.4049 -82.91778,-81.6625 l -82.29365,-82.28655 -81.96302,82.02795 c -45.07965,45.1153 -82.27487,82.0279 -82.65604,82.0279 -0.38116,0 -0.75814,-1.5469 -0.83773,-3.4375 z M 149.6875,791.53076 C 138.85937,791.34142 130,790.78051 130,790.28429 c 0,-0.49624 36.84798,-37.75339 81.8844,-82.79369 l 81.8844,-81.89145 -82.5094,-82.47422 c -45.38017,-45.36082 -82.50895,-82.76125 -82.50839,-83.11207 5.5e-4,-0.35082 13.28971,-0.79103 29.53148,-0.97825 16.24176,-0.18721 33.30769,-0.55606 37.92427,-0.81966 l 8.39379,-0.47927 24.26223,25.11248 c 13.34422,13.81187 51.40285,51.20854 84.57472,83.10372 33.17187,31.89517 60.3125,58.47121 60.3125,59.05786 0,0.58665 -26.62054,26.64709 -59.15675,57.91209 -32.5362,31.265 -70.52753,68.5697 -84.42516,82.89932 l -25.26843,26.05385 -17.76232,0 c -9.76929,0 -26.62172,-0.15491 -37.44984,-0.34424 z m 871.2499,-22.5415 c -12.5468,-12.63134 -50.3749,-50.16585 -84.0624,-83.41001 l -61.25,-60.44394 31.25,-30.97763 c 17.1875,-17.0377 55.1893,-54.77668 84.44845,-83.86439 l 53.19845,-52.88676 23.6766,0.72181 c 13.0221,0.39698 30.2859,0.83028 38.364,0.96288 8.0781,0.13261 14.6875,0.68677 14.6875,1.23148 0,0.54471 -36.9,37.9027 -82.0001,83.01774 l -82.00005,82.02734 82.25875,82.2658 c 45.2423,45.2462 81.9874,82.53707 81.6559,82.86863 -0.3316,0.33155 -17.8855,0.79414 -39.0088,1.02798 l -38.4058,0.42514 -22.8125,-22.96607 z M 566.52681,315.3125 c -31.64799,-32.14063 -68.84467,-69.66898 -82.6593,-83.39635 L 458.75,206.95731 l 0.15707,-21.29116 c 0.0864,-11.71013 0.50827,-29.31169 0.9375,-39.11456 l 0.78043,-17.82343 82.49648,82.51095 82.49647,82.51094 82.81603,-82.809 82.81602,-82.809 0.12288,18.12147 c 0.0675,9.96682 0.27901,26.85835 0.46993,37.53677 l 0.34714,19.41528 -26.19009,24.8002 c -14.40461,13.6401 -51.77744,52.0126 -83.05079,85.27222 -31.27336,33.2596 -57.31511,60.47201 -57.87056,60.47201 -0.55545,0 -26.90372,-26.29688 -58.5517,-58.4375 z" id="path3340" style="fill:#1d86c7"/></g></svg>