<?xml version="1.0" ?><svg height="1250" id="svg2" version="1.1" viewBox="0 0 1250 1250" width="1250" xmlns="http://www.w3.org/2000/svg" xmlns:cc="http://creativecommons.org/ns#" xmlns:dc="http://purl.org/dc/elements/1.1/" xmlns:inkscape="http://www.inkscape.org/namespaces/inkscape" xmlns:rdf="http://www.w3.org/1999/02/22-rdf-syntax-ns#" xmlns:sodipodi="http://sodipodi.sourceforge.net/DTD/sodipodi-0.dtd" xmlns:svg="http://www.w3.org/2000/svg"><defs id="defs6"/><g id="g3338"><path d="m 437.01156,1174.0625 c -0.42057,-8.0781 -1.08599,-28.1875 -1.47869,-44.6875 -1.15641,-48.5885 -1.54053,-59.5493 -2.10671,-60.1155 -0.2945,-0.2945 -13.56086,12.1796 -29.48081,27.7202 L 375,1125.2353 l 0,-125.1117 0,-125.11159 -124.90845,-0.3185 -124.90845,-0.31851 28.1123,-29.19199 c 15.46176,-16.05559 27.89204,-29.41225 27.62282,-29.68146 -0.26921,-0.26921 -26.8295,-0.76699 -59.02284,-1.10618 -32.19335,-0.33917 -58.843803,-0.92712 -59.223228,-1.30655 -0.379425,-0.37943 41.472088,-42.85463 93.003368,-94.38935 L 249.36875,625 155.93437,531.5594 C 104.54547,480.16706 62.5,437.74563 62.5,437.28952 c 0,-0.4561 16.078298,-0.87246 35.729549,-0.92523 19.651251,-0.0528 36.145091,-0.35279 36.652961,-0.66668 0.50786,-0.31388 10.59525,-0.66821 22.41639,-0.7874 11.82114,-0.11912 21.7852,-0.68954 22.14238,-1.26744 0.35716,-0.57791 -11.71022,-13.86832 -26.81638,-29.53426 L 125.15914,375.625 250.07956,375.30649 375,374.98799 l 0,-125.10695 0,-125.10694 29.58285,28.86342 c 16.27058,15.87489 29.7225,28.7226 29.89319,28.55045 0.29215,-0.29464 1.34986,-41.97668 2.41806,-95.291222 0.26148,-13.050538 0.92771,-23.879017 1.48051,-24.063287 0.55282,-0.184269 42.90889,41.571589 94.12464,92.790789 l 93.11953,93.12581 94.06561,-94.05942 94.06561,-94.059431 0.11112,10.621895 c 0.0611,5.842043 0.25299,23.278146 0.42642,38.746896 0.17342,15.46875 0.40467,37.85804 0.5139,49.75399 L 815,181.38296 l 29.6875,-28.12221 29.6875,-28.12221 0.31851,124.93072 0.3185,124.93074 125.10109,0 125.1011,0 -28.2125,28.97794 c -15.5169,15.93786 -28.066,29.1244 -27.887,29.30342 0.179,0.17903 12.4046,0.65514 27.1679,1.05804 14.7633,0.4029 34.4362,0.97541 43.7174,1.27226 9.2813,0.29686 24.0469,0.67654 32.8125,0.84375 10.0923,0.19252 15.9375,0.78481 15.9375,1.61495 0,0.72102 -41.9044,43.21253 -93.121,94.4256 l -93.1209,93.11467 93.3715,93.40242 c 51.3544,51.37134 93.083,93.69105 92.7302,94.04379 -0.3527,0.35275 -27.6061,0.98366 -60.5631,1.40204 -32.9569,0.41837 -60.0487,0.8852 -60.204,1.0374 -0.1553,0.1522 12.6888,13.6028 28.5425,29.89022 l 28.8249,29.6135 -125.099,0 -125.09909,0 -0.3185,124.92057 -0.31851,124.92053 -29.12881,-27.5625 c -16.02085,-15.1595 -29.34684,-27.3446 -29.61332,-27.0781 -0.42006,0.42 -1.60651,70.255 -1.81226,106.6714 l -0.0706,12.4969 -93.75,-93.7438 -93.75,-93.7437 -93.4406,93.4343 c -51.39234,51.3889 -93.79893,93.4344 -94.23687,93.4344 -0.43796,0 -1.14038,-6.6094 -1.56097,-14.6875 z m 333.0095,-321.65236 c 19.32476,-5.35516 32.85894,-16.34271 40.91613,-33.21725 l 4.68781,-9.81789 0,-80.625 0,-80.625 -2.89905,-7.17877 C 806.4447,625.39224 793.44946,612.84806 776.54443,606.02055 L 769.375,603.125 628.20483,602.79144 c -126.53189,-0.29896 -141.89134,-0.12545 -148.12501,1.67339 -21.97105,6.34013 -39.46806,24.03638 -43.78658,44.28517 -1.05743,4.95806 -1.355,28.30988 -1.06725,83.75 l 0.39901,76.875 4.64389,9.72541 c 7.90362,16.55207 21.00876,27.44569 39.66233,32.96923 l 9.44378,2.79641 135.65012,0.067 c 133.48441,0.0659 135.79934,0.0256 144.99594,-2.52289 z m -215.64606,-41.14 c -5.88595,-1.31893 -9.04077,-3.87118 -11.48698,-9.29295 -2.07127,-4.59079 -2.26302,-9.57383 -2.26302,-58.80899 l 0,-53.7932 13.4375,-0.35479 13.4375,-0.35478 0,47.48347 c 0,52.5564 0.16644,53.8511 6.92259,53.8511 7.46344,0 7.39297,0.45686 8.07741,-52.37802 l 0.625,-48.24698 13.4375,-0.35479 13.4375,-0.35478 0,61.29228 0,61.29229 -10.625,0 -10.625,0 0,-7.589 0,-7.589 -4.19957,4.45284 c -7.11469,7.54377 -21.53962,12.6804 -30.17543,10.7453 z m 180.83145,-1.08417 c -8.16321,-2.90562 -16.61365,-10.86132 -20.06939,-18.89442 -3.77206,-8.76839 -5.11826,-19.79516 -5.11736,-41.91655 0.001,-36.69504 3.224,-50.90423 13.45765,-59.33967 9.97239,-8.22009 27.80125,-10.26099 39.52599,-4.5246 12.82331,6.27386 14.80598,12.06786 14.98628,43.79474 l 0.13538,23.81953 -22.8125,0.3407 -22.8125,0.3407 0,15.69295 c 0,15.67818 0.004,15.6964 3.65385,19.3468 3.97506,3.97508 9.88159,4.83709 15.525,2.26578 4.27516,-1.94789 5.73256,-5.49009 6.11478,-14.86193 l 0.33137,-8.125 10,0 10,0 0.3751,7.92646 c 0.46926,9.91615 -2.15839,18.18105 -7.92047,24.91277 -8.45244,9.87476 -22.93282,13.64977 -35.37318,9.22174 z M 757.5,721.81819 c 0,-8.34737 -0.35278,-9.7846 -3.06819,-12.5 -2.36647,-2.36649 -4.3806,-3.06819 -8.80681,-3.06819 -8.28581,0 -11.86909,3.8435 -11.89206,12.75569 -0.01,3.64062 -0.35625,7.88493 -0.7708,9.43181 -0.74528,2.781 -0.61208,2.8125 11.89207,2.8125 l 12.64579,0 0,-9.43181 z m -270,18.29402 0,-71.13778 -10.9375,-0.80172 C 470.54687,667.73177 464.5,667.2594 463.125,667.123 c -2.271,-0.22529 -2.5,-1.164 -2.5,-10.248 l 0,-10 42.5,0 42.5,0 0,10.625 0,10.625 -15.9375,0.34985 -15.9375,0.34984 0,71.21266 0,71.21265 -13.125,0 -13.125,0 0,-71.13779 z m 172.90236,67.4021 c -3.55995,-2.04173 -6.82752,-4.28645 -7.26127,-4.98827 -1.34669,-2.179 -4.39109,-1.40129 -4.39109,1.12172 0,5.87857 -0.94274,6.35224 -12.64279,6.35224 l -11.12531,0 0.32155,-81.5625 0.32155,-81.5625 13.4375,-0.35479 13.4375,-0.35478 0,23.16728 c 0,12.74202 0.14062,23.16017 0.3125,23.15145 0.17187,-0.009 3.62614,-1.6962 7.67615,-3.75 13.53329,-6.86283 24.1381,-4.25511 30.76135,7.56422 l 3.125,5.57662 0,45 c 0,43.76651 -0.0751,45.15419 -2.73942,50.625 -5.0862,10.44376 -9.53932,13.75495 -18.47622,13.73828 -4.66737,-0.009 -7.9498,-0.9669 -12.757,-3.72397 z m 9.60365,-19.39242 c 2.5007,-1.29316 3.86524,-3.14244 4.38116,-5.9375 0.4121,-2.23266 0.57795,-20.28166 0.36855,-40.10889 l -0.38072,-36.0495 -2.95097,-2.388 c -3.96437,-3.20805 -11.41724,-3.11139 -15.63045,0.20273 l -3.29358,2.59072 0,39.19355 0,39.19355 3.29358,2.59072 c 3.88651,3.05714 9.16667,3.32188 14.21243,0.71262 z M 555,526.49806 l 0,-48.50194 16.25,-40.54413 c 8.9375,-22.29928 16.25,-40.69215 16.25,-40.87307 0,-0.18091 -6.62828,-0.32892 -14.72951,-0.32892 l -14.72952,0 -8.7042,30.625 c -4.7873,16.84375 -9.03422,30.625 -9.43759,30.625 -0.40338,0 -4.58074,-13.55509 -9.28304,-30.1224 -4.70229,-16.56732 -9.19137,-30.36866 -9.97571,-30.66965 -0.78435,-0.30098 -7.40163,-0.38653 -14.70507,-0.1901 l -13.27897,0.35715 6.33616,15 c 3.48489,8.25 11.3247,26.7231 17.42181,41.05132 l 11.08564,26.05133 0,48.01117 0,48.01118 13.75,0 13.75,0 0,-48.50194 z m 78.88762,46.57838 c 9.78342,-3.45179 17.15843,-12.96113 19.83594,-25.57644 0.98058,-4.62006 1.3267,-18.76466 1.0553,-43.125 -0.4017,-36.05546 -0.42131,-36.2869 -3.65559,-43.125 -6.39123,-13.51276 -15.6751,-19.2542 -31.12327,-19.24766 -18.93494,0.007 -29.20976,9.9941 -32.57061,31.65534 -2.24678,14.48077 -0.86615,72.57848 1.92984,81.20937 2.71472,8.38006 10.63823,16.73446 17.62255,18.58094 7.44696,1.96877 20.79511,1.78445 26.90585,-0.37155 z m -20.4304,-21.72233 -4.08222,-3.64589 -0.36491,-37.56482 c -0.40674,-41.86871 -0.14763,-43.44923 7.7397,-47.21043 3.79177,-1.80817 4.50242,-1.79921 8.52031,0.10738 2.41093,1.14405 5.02395,3.48571 5.8067,5.20367 0.96498,2.1179 1.4232,15.41054 1.4232,41.28593 l 0,38.16234 -3.65385,3.65383 c -4.84869,4.84869 -9.96591,4.85134 -15.38893,0.007 z m 87.05969,19.951 c 2.63754,-1.3447 5.60087,-3.5947 6.58518,-5 2.61959,-3.73997 4.51971,-3.155 3.88127,1.19489 l -0.55037,3.75 14.7835,0 14.78351,0 0,-62.5 0,-62.5 -11.25,0 -11.25,0 -0.0924,10.3125 c -0.53453,59.6552 -0.86042,89.3236 -0.99547,90.625 -0.5582,5.3793 -10.58372,8.53691 -15.4255,4.85838 -4.3628,-3.31462 -4.73666,-7.82373 -4.73666,-57.12725 l 0,-48.66863 -11.25,0 -11.25,0 0.0549,54.6875 c 0.0576,57.41974 0.34348,60.73371 5.76378,66.81602 2.83209,3.17799 8.73333,5.88208 12.97955,5.94755 1.74527,0.0269 5.33118,-1.05127 7.96872,-2.39596 z" id="path3346" style="fill:#eea4a3"/><path d="m 438.29049,1186.1894 c -0.31593,-0.9979 -1.25328,-27.9706 -2.083,-59.9394 -0.82972,-31.9687 -1.70807,-58.3453 -1.95188,-58.6147 -0.24381,-0.2693 -13.53544,12.3534 -29.53695,28.0504 l -29.09366,28.5402 -0.31854,-124.60694 -0.31854,-124.60689 -124.58243,-0.31853 -124.58243,-0.31854 28.84835,-30 c 15.86659,-16.5 28.74716,-30.10611 28.6235,-30.2358 -0.12362,-0.12969 -26.82031,-0.48751 -59.32589,-0.79517 -32.505571,-0.30767 -59.329858,-0.7882 -59.60952,-1.06787 -0.279661,-0.27966 41.37506,-42.38917 92.56604,-93.5767 L 250.00006,625.63122 155.94064,531.56561 61.881209,437.5 80.003104,437.44956 C 89.970147,437.42182 115,437.0424 135.625,436.60641 c 20.625,-0.43599 39.6246,-0.7895 42.22132,-0.78556 2.59674,0.004 4.56549,-0.41479 4.375,-0.93048 -0.19047,-0.51567 -12.95141,-14.06135 -28.35761,-30.10148 l -28.0113,-29.16389 124.56776,-0.31854 124.56776,-0.31854 0.31853,-124.57567 0.31854,-124.57566 29.51581,28.92578 29.51582,28.92579 0.77659,-7.15657 c 0.42713,-3.93613 1.15921,-31.25039 1.62683,-60.69836 l 0.85024,-53.541768 93.86046,93.854298 93.86048,93.8543 93.11621,-93.1225 c 89.46526,-89.471311 93.15462,-92.987811 94.09611,-89.687525 0.53896,1.88923 0.90888,8.216215 0.82205,14.059965 -0.47665,32.07998 0.21743,99.99982 1.0219,99.9988 0.51562,-6.5e-4 14.15625,-12.48229 30.3125,-27.73696 l 29.375,-27.73579 0.31854,124.60594 0.31853,124.60593 124.60689,0.31854 124.60694,0.31854 -28.5402,29.09366 c -15.697,16.00152 -28.3197,29.28592 -28.0504,29.52088 0.4827,0.42107 26.6953,1.25868 87.9897,2.8117 17.1875,0.43547 31.5071,1.01858 31.8214,1.29578 0.3142,0.27722 -41.4514,42.52957 -92.8126,93.89413 l -93.3838,93.3901 93.0745,93.06822 c 51.191,51.18752 92.841,93.30165 92.5557,93.58697 -0.2853,0.28531 -16.7157,0.68315 -36.512,0.88408 -19.7962,0.20094 -46.8213,0.48218 -60.0557,0.62499 -13.2344,0.1428 -24.0625,0.54046 -24.0625,0.88368 0,0.34322 13.0477,13.9152 28.9949,30.15992 l 28.9949,29.53589 -124.61387,0.31854 -124.61385,0.31853 -0.31854,124.60594 -0.31854,124.60589 -29.375,-27.7421 -29.375,-27.7421 -0.8644,4.6926 c -0.47542,2.581 -0.91056,29.3021 -0.96696,59.3802 -0.0564,30.0781 -0.5126,54.6875 -1.01375,54.6875 -0.50115,0 -42.81461,-41.9063 -94.02991,-93.125 l -93.11873,-93.125 -93.38318,93.3769 c -59.79223,59.7883 -93.5898,92.7243 -93.95758,91.5625 z M 769.96814,853.04701 c 13.44154,-3.05721 27.68625,-12.62655 36.11119,-24.25881 5.70987,-7.88361 8.81472,-15.49639 10.18648,-24.97634 1.60153,-11.06765 1.56383,-140.93804 -0.0439,-151.31186 -2.83277,-18.27814 -16.24398,-36.04706 -33.19309,-43.97851 -15.73265,-7.36219 -11.75688,-7.17977 -157.51636,-7.22758 -128.34109,-0.0421 -134.25254,0.0559 -143.31764,2.37429 -12.80508,3.27499 -21.31951,7.81987 -29.79509,15.90421 -8.69557,8.29418 -15.57477,21.33356 -17.37162,32.92759 -1.60774,10.37382 -1.64544,140.24421 -0.0439,151.31186 2.73318,18.88828 15.16374,35.5301 33.46594,44.80364 12.34002,6.25257 10.26119,6.16904 156.30311,6.28036 119.62913,0.0911 137.69659,-0.13885 145.2149,-1.84885 z M 549.70321,809.3747 c -7.77174,-4.40185 -7.79222,-4.56359 -8.1903,-64.6872 L 541.15082,690 l 13.21962,0 13.21962,0 -0.15028,47.55877 c -0.13193,41.74668 0.0952,47.93349 1.85878,50.625 2.79363,4.2636 7.23126,3.9551 11.21533,-0.77968 l 3.23611,-3.8459 0,-46.7791 0,-46.77909 12.5,0 12.5,0 0,60 0,60 -10,0 -10,0 0,-6.875 c 0,-3.78125 -0.31756,-6.875 -0.7057,-6.875 -0.38814,0 -2.14891,1.71515 -3.91282,3.81145 -7.32858,8.70953 -26.39023,13.86591 -34.42827,9.31325 z m 114.35135,-0.59459 c -2.92624,-1.32824 -7.19807,-3.84714 -9.49298,-5.59755 C 652.26668,801.43215 650.08285,800 649.70862,800 c -0.37422,0 -1.04973,1.96875 -1.50115,4.375 l -0.82076,4.375 -7.75585,0.15953 c -4.26572,0.0877 -9.02149,0.29218 -10.56836,0.45433 l -2.8125,0.2948 0,-81.07933 0,-81.07933 13.125,0 13.125,0 0,23.037 0,23.03701 5.7028,-3.18736 c 15.4365,-8.62762 27.51084,-5.42347 33.87124,8.98835 1.89071,4.28409 2.27463,9.94313 2.68137,39.5233 0.69029,50.20273 -1.41682,62.27629 -12.12776,69.49083 -5.21085,3.50985 -11.41424,3.64043 -18.57309,0.39098 z M 672.12741,787.26287 675,784.56421 675,745.625 c 0,-38.79138 -0.0113,-38.94891 -2.8125,-41.49306 -3.73671,-3.39305 -8.53926,-4.40216 -13.20685,-2.77504 -7.55953,2.63526 -7.73065,3.5991 -7.73065,43.5403 0,25.94368 0.43517,37.19028 1.5322,39.59799 3.09529,6.79341 13.47873,8.27896 19.34521,2.76769 z m 60.78751,21.56664 c -7.29771,-3.31344 -14.79726,-11.50985 -18.17303,-19.8617 -2.7575,-6.82217 -2.86639,-8.45216 -2.85365,-42.71781 0.0126,-34.14628 0.13133,-35.9185 2.85866,-42.69586 5.15353,-12.8064 17.73936,-21.05414 32.1281,-21.05414 7.35957,0 17.33885,3.2499 21.98569,7.15996 6.95604,5.85312 7.78261,9.55324 8.38334,37.52754 l 0.54355,25.3125 -22.64379,0 -22.64379,0 0,16.59686 c 0,18.59189 0.90462,21.24998 7.88817,23.17824 6.29684,1.73864 11.74844,0.39265 15.24625,-3.76426 2.61772,-3.11098 3.11558,-4.99409 3.11558,-11.78433 l 0,-8.08167 9.6875,0.36509 9.6875,0.36507 -0.15554,8.75 c -0.11037,6.2126 -0.96941,10.47919 -2.96213,14.71299 -3.397,7.21736 -11.83864,14.94144 -18.51588,16.94199 -7.27294,2.17902 -17.601,1.76266 -23.57652,-0.95047 z m 25.57873,-86.08586 c 0.36105,-8.94318 0.27991,-9.22009 -3.9375,-13.4375 -5.97195,-5.97195 -11.87174,-5.99056 -17.80615,-0.0561 -4.01603,4.01603 -4.25,4.72713 -4.25,12.91667 0,4.76667 0.39401,9.06067 0.87558,9.54225 0.48156,0.48156 6.24718,0.71593 12.8125,0.52082 l 11.93692,-0.35476 0.36865,-9.13135 z M 487.5,738.75 l 0,-71.25 -13.125,0 -13.125,0 0,-10 0,-10 41.875,0 41.875,0 0,10 0,10 -15.625,0 -15.625,0 0,71.25 0,71.25 -13.125,0 -13.125,0 0,-71.25 z m 67.5,-210.84319 0,-48.34317 16.25,-40.7194 c 8.9375,-22.39567 16.25,-41.14123 16.25,-41.65681 0,-0.51559 -6.72821,-0.93743 -14.95157,-0.93743 l -14.95158,0 -1.76236,5.9375 c -0.9693,3.26562 -4.72449,16.34375 -8.34488,29.0625 -6.03156,21.18949 -8.73961,28.52247 -8.73961,23.66556 0,-1.00893 -3.04266,-12.23081 -6.76146,-24.9375 -3.71882,-12.70668 -7.39674,-25.49368 -8.17319,-28.41556 l -1.41171,-5.3125 -15.09761,0 c -13.78712,0 -15.04252,0.18988 -14.46294,2.1875 0.34906,1.20312 8.14905,19.625 17.33328,40.9375 l 16.69863,38.75 0.35406,49.0625 0.35406,49.0625 13.70844,0 13.70844,0 0,-48.34319 z m 82.48846,44.1619 c 6.85902,-3.45821 13.01124,-11.24816 15.745,-19.93637 2.72108,-8.64787 4.07336,-66.28734 1.85415,-79.03095 -3.48078,-19.98822 -13.81131,-30.30113 -31.63445,-31.58053 -11.9934,-0.86091 -19.01072,1.41765 -26.05246,8.45939 -7.50151,7.50151 -9.73217,14.26112 -11.35026,34.39475 -1.38842,17.27591 -0.52484,53.96402 1.5246,64.77065 2.72163,14.35117 11.0921,23.7043 23.12451,25.83926 8.95994,1.58979 20.3002,0.35531 26.78891,-2.9162 z m -20.82753,-18.90119 c -2.18025,-0.94273 -4.57088,-2.84787 -5.3125,-4.23362 C 610.46801,547.28884 610,533.11999 610,508.11102 l 0,-38.30333 3.65385,-3.65384 c 5.99227,-5.99229 14.21498,-4.31674 17.47826,3.56155 1.05239,2.54069 1.37125,14.21971 1.10978,40.64817 l -0.36689,37.0832 -3.125,3.02323 c -4.18555,4.04922 -7.33686,4.7524 -12.08907,2.69752 z m 84.54077,18.73245 c 1.96766,-1.01751 4.7145,-3.29542 6.10411,-5.06201 l 2.52654,-3.21198 0.39632,4.12451 0.39633,4.12451 14.375,0 14.375,0 0,-63.125 0,-63.125 -11.25,0 -11.25,0 -0.625,51.51902 c -0.69598,57.36919 -0.38125,55.4725 -9.24623,55.72379 -9.09745,0.25788 -8.80375,1.97993 -9.50377,-55.72379 l -0.625,-51.51902 -11.875,0 -11.875,0 0.008,55.625 c 0.006,54.47896 0.063,55.74664 2.72746,61.52916 1.65738,3.59681 4.34143,6.89236 6.8681,8.43283 4.93719,3.0101 13.37605,3.32436 18.47424,0.68798 z" id="path3344" style="fill:#e23635"/><path d="m 375,999.5786 0,-124.56653 -124.28596,-0.31853 -124.28598,-0.31854 26.47348,-27.57894 c 14.5604,-15.16841 31.999,-33.59028 38.75243,-40.9375 L 203.93296,792.5 l -7.27899,-0.13259 c -4.00343,-0.0729 -20.91946,-0.21355 -37.59116,-0.3125 -16.6717,-0.099 -30.31232,-0.46276 -30.3125,-0.80846 -1.7e-4,-0.3457 37.1247,-37.75036 82.49971,-83.12147 l 82.50003,-82.49293 -82.50003,-82.50702 C 165.87501,497.74616 128.75,460.20942 128.75,459.71004 c 0,-0.49938 12.78579,-0.90795 28.41285,-0.90795 15.62706,0 32.47349,-0.36798 37.4365,-0.81772 l 9.02365,-0.8177 -12.124,-13.19189 c -6.6682,-7.25556 -24.03706,-25.60243 -38.59746,-40.77084 L 126.42806,375.625 250.71404,375.30646 375,374.98793 l 0,-124.58668 0,-124.58669 24.0625,23.65521 C 412.29687,162.48015 431,180.50964 440.625,189.5353 l 17.5,16.41031 0.11075,-6.41031 c 0.0609,-3.52566 0.28367,-21.23283 0.49509,-39.34924 l 0.38437,-32.93893 83.25843,83.25147 83.25843,83.25148 82.44263,-82.44973 c 45.34345,-45.34735 82.71285,-82.17951 83.04311,-81.84926 0.33025,0.33026 0.70944,12.82325 0.84261,27.76219 0.13319,14.93895 0.30909,31.27875 0.39089,36.31066 l 0.14869,9.14893 10.77979,-9.77393 c 5.92887,-5.37567 24.35075,-22.5334 40.9375,-38.1283 L 874.375,126.41626 874.69354,250.70814 875.01207,375 l 124.66807,0 124.66806,0 -21.3216,21.5625 c -11.7268,11.85937 -29.5536,30.32054 -39.6149,41.02483 -17.8724,19.01433 -18.2013,19.46377 -14.2901,19.52596 23.0742,0.36687 72.8801,2.03053 73.3246,2.44925 0.3141,0.29596 -36.6703,37.78267 -82.1876,83.30381 l -82.75865,82.7657 82.44975,82.44261 c 45.3473,45.34345 82.1956,82.69673 81.885,83.0073 -0.3106,0.31058 -14.7723,0.70319 -32.1372,0.87248 -17.3649,0.16927 -34.5953,0.36129 -38.2899,0.42667 l -6.7174,0.11889 18.5074,19.6875 c 10.1791,10.82812 28.1022,29.39062 39.829,41.25 l 21.3216,21.5625 -124.66806,0 -124.66807,0 -0.31853,124.29186 -0.31854,124.29184 -30.15771,-28.3543 c -16.58675,-15.5949 -35.00863,-32.7527 -40.9375,-38.1283 l -10.77979,-9.774 -0.13548,5.399 c -0.0745,2.9694 -0.28715,19.4614 -0.47252,36.6489 -0.18537,17.1875 -0.40565,31.8109 -0.48953,32.4965 -0.0839,0.6855 -37.41968,-36.0176 -82.96849,-81.5626 l -82.81603,-82.80895 -82.49071,82.49785 c -72.40314,72.4093 -82.5839,82.1493 -83.25284,79.6481 -0.41916,-1.5674 -0.90596,-10.9882 -1.08177,-20.9353 -0.1758,-9.9471 -0.41375,-21.4606 -0.52877,-25.5856 -0.115,-4.125 -0.33393,-12.2045 -0.48648,-17.9545 l -0.27738,-10.4546 -16.53892,15.4546 c -9.09642,8.5 -27.65892,26.3715 -41.25,39.7146 L 375,1124.1451 375,999.5786 Z M 774.02099,852.51845 c 20.80897,-6.42724 37.76145,-24.46564 42.07244,-44.76747 1.82367,-8.58827 1.95629,-148.21426 0.14997,-157.89287 -4.07967,-21.85972 -23.34355,-41.25809 -46.35974,-46.68339 -12.03048,-2.83578 -276.48684,-2.83578 -288.51732,0 -23.01619,5.4253 -42.28007,24.82367 -46.35974,46.68339 -1.80632,9.67861 -1.6737,149.3046 0.14998,157.89287 4.267,20.09468 20.15484,37.27464 41.06456,44.40425 l 8.15386,2.78023 140.80583,0.0322 c 136.97407,0.0314 141.02447,-0.0353 148.84016,-2.44927 z M 553.75,810.35372 c -3.83831,-0.71443 -7.10355,-3.53399 -9.81548,-8.47577 -1.80396,-3.28725 -2.1099,-10.46158 -2.46546,-57.81545 L 541.06313,690 l 12.59343,0 12.59344,0 0,46.93708 c 0,53.12481 0.17645,54.31292 8.06637,54.31292 3.10486,0 4.9512,-0.88868 6.8429,-3.29358 2.51737,-3.20031 2.59073,-4.63381 2.59073,-50.625 l 0,-47.33142 12.5,0 12.5,0 0,60 0,60 -10,0 -10,0 0,-7.74428 0,-7.74426 -4.07044,4.44388 c -7.25927,7.92528 -21.46419,13.16017 -30.92956,11.39838 z m 115.41498,-0.31637 c -4.60047,-1.08004 -14.25834,-6.51253 -16.60519,-9.3403 -2.56233,-3.08743 -3.72145,-2.31473 -4.57978,3.05295 l -0.79953,5 -10.46524,0 -10.46524,0 0,-80.625 0,-80.625 12.5,0 12.5,0 0,23.125 c 0,12.71875 0.47263,23.125 1.05029,23.125 0.57766,0 4.09329,-1.67731 7.8125,-3.72735 13.25492,-7.30618 24.91686,-4.32549 30.56821,7.81296 3.03199,6.51235 3.04463,6.71029 3.05679,47.87501 0.01,33.64105 -0.3468,42.54457 -1.91645,47.83012 -3.70393,12.47251 -12.504,18.88003 -22.65636,16.49661 z m 0.95079,-20.72223 c 2.0579,-1.06417 4.27997,-3.35078 4.93793,-5.08137 0.65968,-1.73509 1.1963,-19.05366 1.1963,-38.60875 0,-19.55509 -0.53662,-36.87366 -1.1963,-38.60875 C 673.63277,703.27891 667.83986,700 662.65799,700 c -2.17425,0 -5.31193,1.34274 -7.56208,3.23611 l -3.84591,3.23613 0,38.73503 0,38.73504 3.65385,3.65384 c 4.18548,4.18547 9.32019,4.76571 15.21192,1.71897 z m 67.37614,20.76696 c -10.22012,-3.10883 -18.20802,-10.94086 -22.54599,-22.10604 -2.55497,-6.5761 -2.91452,-10.05239 -3.41061,-32.97604 -0.89658,-41.42974 2.30555,-56.77266 13.5485,-64.91701 10.49066,-7.5994 26.30495,-9.02473 37.70776,-3.39858 12.36785,6.10231 14.50193,13.18625 14.64103,48.59989 l 0.0674,17.1593 -22.8125,0.3407 -22.8125,0.3407 0,16.46511 c 0,15.67924 0.14379,16.61801 3.01241,19.66837 5.51989,5.86957 15.3473,5.81461 20.84413,-0.11663 2.58089,-2.78476 3.01846,-4.4989 3.01846,-11.82438 l 0,-8.56747 9.375,0 9.375,0 0,8.82741 c 0,15.78488 -8.2124,27.7829 -21.78938,31.83349 -6.59935,1.96887 -13.15825,2.2105 -18.21871,0.67117 z M 758.75,722.40385 c 0,-9.49225 -0.21856,-10.31471 -3.65385,-13.75 C 752.10452,705.66221 750.38799,705 745.625,705 c -4.76299,0 -6.47952,0.66221 -9.47115,3.65385 -3.43529,3.43529 -3.65385,4.25775 -3.65385,13.75 l 0,10.09615 13.125,0 13.125,0 0,-10.09615 z m -270,17.04493 c 0,-39.51974 -0.48608,-70.85166 -1.10512,-71.23424 -0.60782,-0.37565 -6.79532,-1.0559 -13.75,-1.51167 L 461.25,665.8742 l 0,-9.1871 0,-9.1871 41.875,0 41.875,0 0,10 0,10 -15.49126,0 c -13.48718,0 -15.59781,0.27766 -16.31488,2.1463 -0.45299,1.18046 -0.43482,33.24296 0.0404,71.25 l 0.86392,69.1037 -12.67407,0 -12.67409,0 0,-70.55122 z M 556.28341,525 556.94181,474.375 571.07205,440 c 7.77164,-18.90625 14.90353,-36.48438 15.84865,-39.0625 l 1.7184,-4.6875 -15.88205,0.002 -15.88205,0.001 L 548.75,425 c -4.46875,15.81034 -8.4421,28.74696 -8.82967,28.74804 -0.38757,0.001 -4.25544,-12.51367 -8.59528,-27.81054 -4.33982,-15.29688 -8.28768,-28.25245 -8.77299,-28.79016 -0.48531,-0.53771 -7.68527,-0.81897 -15.99994,-0.625 l -15.11755,0.35266 10.64064,25 c 5.85235,13.75 13.68583,32.17633 17.40772,40.9474 l 6.76707,15.9474 0,48.77977 0,48.77977 14.6875,-0.35216 L 555.625,575.625 556.28341,525 Z m 76.94902,49.4129 c 7.74421,-2.29979 14.1775,-8.69839 18.88974,-18.7879 l 3.50283,-7.5 0,-40 0,-40 -3.45876,-7.38499 c -6.34815,-13.5543 -16.33636,-19.89919 -31.54124,-20.03617 -13.2898,-0.11975 -21.66492,4.13887 -28.01986,14.24762 -6.22559,9.90301 -6.98014,15.92128 -6.98014,55.67354 0,31.93609 0.27811,37.13021 2.33695,43.64647 2.89624,9.16664 11.52584,18.44774 18.98495,20.41827 7.31221,1.9317 19.27274,1.80574 26.28552,-0.27684 z M 613.65385,550.09615 610,546.44231 l 0,-37.03324 c 0,-40.69071 0.32153,-42.68565 7.3489,-45.59648 4.52091,-1.87263 7.5509,-1.03527 11.51589,3.18248 3.00166,3.193 3.01137,3.2968 3.41763,36.54102 0.22409,18.3364 0.0384,35.80016 -0.41262,38.80836 -1.64476,10.96994 -11.01168,14.95599 -18.21595,7.7517 z m 84.10699,23.60239 c 2.54971,-0.70814 6.34658,-2.99827 8.4375,-5.08918 L 710,564.80769 l 0,3.84616 0,3.84615 14.86626,0 c 12.40298,0 14.99199,-0.32763 15.625,-1.97724 0.41731,-1.08747 0.75874,-28.88522 0.75874,-61.77276 0,-32.88754 -0.34143,-60.68529 -0.75874,-61.77276 -0.61735,-1.6088 -2.94661,-1.97724 -12.5,-1.97724 l -11.74126,0 0,50.45642 c 0,49.15267 -0.0669,50.54154 -2.59073,53.75 -1.87901,2.38879 -3.74275,3.29358 -6.78427,3.29358 -3.04152,0 -4.90526,-0.90479 -6.78427,-3.29358 -2.52379,-3.20846 -2.59073,-4.59733 -2.59073,-53.75 l 0,-50.45642 -12.55869,0 -12.55869,0 0.37119,57.1875 c 0.34489,53.13513 0.53718,57.49221 2.71368,61.48764 2.88081,5.28835 6.48836,8.43382 11.40751,9.94635 5.05652,1.55477 5.55252,1.55827 10.88584,0.077 z" id="path3342" style="fill:#d32322"/><path d="m 459.95967,1116.2465 c -0.0776,-10.8172 -1.15425,-43.2463 -1.90387,-57.3453 l -0.75626,-14.2237 54.18972,-54.52626 c 29.80434,-29.98943 67.38045,-67.88562 83.50246,-84.21374 16.12202,-16.32813 29.71357,-29.6875 30.20343,-29.6875 0.48987,0 26.18747,26.9171 57.10579,59.81579 30.91831,32.89867 67.93962,70.94321 82.26958,84.54341 14.32997,13.6001 26.36458,25.3549 26.7436,26.1217 0.37902,0.7668 0.37902,17.8506 0,37.964 l -0.68912,36.5699 -82.49647,-82.5074 -82.49648,-82.50745 -82.81603,82.80905 -82.81602,82.809 -0.0404,-5.6215 z M 203.60881,791.94214 c -0.34524,-0.34523 -17.04845,-0.70706 -37.11825,-0.80408 C 146.42075,791.04105 130,790.74443 130,790.47889 c 0,-0.26553 36.84375,-37.32264 81.875,-82.34914 45.03125,-45.0265 81.875,-82.28968 81.875,-82.80705 0,-0.51739 -37.11897,-38.06728 -82.48663,-83.4442 l -82.48662,-82.5035 31.54912,-0.36505 c 50.67485,-0.58635 43.98778,-1.61231 53.36083,8.18685 26.13801,27.32628 45.6019,46.58506 99.7508,98.69966 33.17187,31.92565 60.3125,58.52663 60.3125,59.11328 0,0.58665 -26.63055,26.6567 -59.17899,57.93346 -32.54845,31.27676 -70.68898,68.7378 -84.75675,83.24674 -14.06777,14.50894 -25.86022,26.09743 -26.20545,25.7522 z M 1048.75,791.50411 c -5.5994,-0.38685 -5.8639,-0.6259 -58.125,-52.53611 -28.875,-28.68111 -66.5625,-66.0571 -83.75,-83.05774 L 875.625,625 l 31.25,-30.90998 c 17.1875,-17.0005 55.2025,-54.72221 84.47778,-83.82604 l 53.22782,-52.91607 14.8972,0.73242 c 13.3781,0.65772 46.6851,1.72935 58.0187,1.8667 4.225,0.0513 1.6088,2.81578 -78.1215,82.55297 l -82.4929,82.5 82.184,82.19103 c 45.2011,45.20506 82.1839,82.57682 82.1839,83.04836 0,0.47154 -14.655,0.87718 -32.5667,0.90143 -17.9117,0.0243 -32.9586,0.20335 -33.4375,0.398 -0.4789,0.19465 -3.402,0.17903 -6.4958,-0.0347 z M 565.90795,314.6875 c -31.97819,-32.48438 -69.1707,-70.01228 -82.65005,-83.39534 l -24.5079,-24.33284 0,-14.52865 c 0,-7.99076 0.372,-25.63614 0.82668,-39.21198 l 0.82666,-24.68334 82.77522,82.7682 82.77522,82.7682 82.12802,-82.13929 c 45.17043,-45.17661 82.31848,-81.94886 82.55124,-81.7161 0.23275,0.23277 0.58377,16.82538 0.78005,36.87248 l 0.35685,36.44926 -26.5526,25.21106 c -14.60394,13.86609 -51.88286,52.16377 -82.84207,85.10595 -30.95919,32.94219 -56.74748,59.89489 -57.30731,59.89489 -0.55982,0 -27.18184,-26.57813 -59.16001,-59.0625 z" id="path3340" style="fill:#b21d1c"/></g></svg>